<?xml version="1.0" encoding="UTF-8"?>
<!DOCTYPE svg  PUBLIC '-//W3C//DTD SVG 1.1//EN'  'http://www.w3.org/Graphics/SVG/1.1/DTD/svg11.dtd'>
<svg enable-background="new 0 0 143.333 144.333" version="1.1" viewBox="0 0 143.33 144.33" xml:space="preserve" xmlns="http://www.w3.org/2000/svg">
<path d="m16.958 74.333c-0.33 12.645 7.02 26.115 16.443 34.301 9.188 7.982 21.202 11.761 33.233 12.108 11.577 0.334 23.328-3.9 33.537-9.025 10.271-5.156 18.675-13.193 22.757-24.032 4.532-12.033 0.266-26.185-5.407-37.007-6.001-11.446-15.925-21.533-27.463-27.372-24.289-12.293-52.375-1.242-67.789 19.608-6.766 9.154-6.268 20.68-5.311 31.419 0.852 9.555 15.86 9.638 15 0-0.755-8.469-1.734-16.523 3.263-23.847 5.785-8.479 15.979-14.429 25.782-16.705 22.602-5.247 42.745 15.374 47.859 35.713 5.286 21.02-16.169 31.137-33.049 35.333-9.308 2.313-19.54 0.515-27.825-4.123-8.824-4.939-16.298-16.13-16.031-26.37 0.254-9.679-14.747-9.655-14.999-1e-3z" fill="#fff"/>
</svg>
