<?xml version="1.0" encoding="utf-8"?>
<!-- Generator: Adobe Illustrator 17.0.0, SVG Export Plug-In . SVG Version: 6.00 Build 0)  -->
<!DOCTYPE svg PUBLIC "-//W3C//DTD SVG 1.1//EN" "http://www.w3.org/Graphics/SVG/1.1/DTD/svg11.dtd">
<svg version="1.1" id="Layer_1" xmlns="http://www.w3.org/2000/svg" xmlns:xlink="http://www.w3.org/1999/xlink" x="0px" y="0px"
	 width="143.333px" height="144.333px" viewBox="0 0 143.333 144.333" enable-background="new 0 0 143.333 144.333"
	 xml:space="preserve">
<path fill="#FFFFFF" d="M16.958,74.333c-0.33,12.645,7.02,26.115,16.443,34.301c9.188,7.982,21.202,11.761,33.233,12.108
	c11.577,0.334,23.328-3.9,33.537-9.025c10.271-5.156,18.675-13.193,22.757-24.032c4.532-12.033,0.266-26.185-5.407-37.007
	c-6.001-11.446-15.925-21.533-27.463-27.372c-24.289-12.293-52.375-1.242-67.789,19.608C15.503,52.068,16.001,63.594,16.958,74.333
	c0.852,9.555,15.86,9.638,15,0c-0.755-8.469-1.734-16.523,3.263-23.847c5.785-8.479,15.979-14.429,25.782-16.705
	c22.602-5.247,42.745,15.374,47.859,35.713c5.286,21.02-16.169,31.137-33.049,35.333c-9.308,2.313-19.54,0.515-27.825-4.123
	c-8.824-4.939-16.298-16.13-16.031-26.37C32.211,64.655,17.21,64.679,16.958,74.333L16.958,74.333z"/>
</svg>
