<?xml version="1.0" encoding="UTF-8"?>
<!DOCTYPE svg  PUBLIC '-//W3C//DTD SVG 1.1//EN'  'http://www.w3.org/Graphics/SVG/1.1/DTD/svg11.dtd'>
<svg enable-background="new 0 0 143.333 144.333" version="1.1" viewBox="0 0 143.33 144.33" xml:space="preserve" xmlns="http://www.w3.org/2000/svg">
<path d="m96.748 76.01c-5.739-0.255-11.462-0.043-17.167 0.383 0.833 13.919 1.981 27.821 3.138 41.706 0.68 8.205-12.074 8.137-12.754 0-1.122-13.494-2.245-26.996-3.07-40.524-6.768 0.714-13.528 1.463-20.313 1.837-8.222 0.451-8.18-12.304 0-12.754 6.556-0.357 13.094-1.071 19.633-1.76-0.595-12.865-0.842-25.747-0.502-38.628 0.221-8.205 12.975-8.231 12.754 0-0.332 12.482-0.111 24.956 0.442 37.421 5.935-0.459 11.87-0.697 17.839-0.434 8.189 0.365 8.223 13.119 0 12.753z" fill="#fff"/>
</svg>
