<?xml version="1.0" encoding="utf-8"?>
<!-- Generator: Adobe Illustrator 17.0.0, SVG Export Plug-In . SVG Version: 6.00 Build 0)  -->
<!DOCTYPE svg PUBLIC "-//W3C//DTD SVG 1.1//EN" "http://www.w3.org/Graphics/SVG/1.1/DTD/svg11.dtd">
<svg version="1.1" id="Layer_1" xmlns="http://www.w3.org/2000/svg" xmlns:xlink="http://www.w3.org/1999/xlink" x="0px" y="0px"
	 width="143.333px" height="144.333px" viewBox="0 0 143.333 144.333" enable-background="new 0 0 143.333 144.333"
	 xml:space="preserve">
<path fill="#FFFFFF" d="M96.748,76.01c-5.739-0.255-11.462-0.043-17.167,0.383c0.833,13.919,1.981,27.821,3.138,41.706
	c0.68,8.205-12.074,8.137-12.754,0c-1.122-13.494-2.245-26.996-3.07-40.524c-6.768,0.714-13.528,1.463-20.313,1.837
	c-8.222,0.451-8.18-12.304,0-12.754c6.556-0.357,13.094-1.071,19.633-1.76c-0.595-12.865-0.842-25.747-0.502-38.628
	c0.221-8.205,12.975-8.231,12.754,0c-0.332,12.482-0.111,24.956,0.442,37.421c5.935-0.459,11.87-0.697,17.839-0.434
	C104.937,63.622,104.971,76.376,96.748,76.01z"/>
</svg>
