<?xml version="1.0" encoding="UTF-8"?>
<svg width="2.9794mm" height="7.5607mm" version="1.1" viewBox="0 0 2.9794 7.5607" xmlns="http://www.w3.org/2000/svg"><g transform="translate(-103.85 -144.48)"><path d="m105.46 152c-0.31122-0.35055-0.23142-0.83214-0.30644-1.288-0.11437-0.68944-0.32507-1.6087-0.619-2.2373-0.13864-0.29562-0.65074-0.98326-0.63561-1.2207 0.0227-0.3532 0.4613-0.48087 0.83157-1.2277 0.27335-0.55018 0.27457-1.1809 0.44135-1.3679 0.0884-0.0988 0.15057-0.0896 0.25992-0.12102 0.0373 1.3433 0.29901 2.2279 1.3605 3.1244l-9e-3 0.16909c-0.63315 0.25216-0.65313 0.59702-0.80619 1.229l-0.28523 1.7654c-0.0335 0.51795 0.0216 0.69553-0.23187 1.1747zm-0.18897-6.0298-1.0062 1.388 0.78473 1.3982 0.43802 1.1254 0.31321-1.5095 0.23312-0.75071-0.38604-0.69875z" fill="#fff" stroke="#fff" stroke-width=".084667"/></g></svg>
