<?xml version="1.0" encoding="UTF-8"?>
<!DOCTYPE svg  PUBLIC '-//W3C//DTD SVG 1.1//EN'  'http://www.w3.org/Graphics/SVG/1.1/DTD/svg11.dtd'>
<svg enable-background="new 0 0 143.333 144.333" version="1.1" viewBox="0 0 143.33 144.33" xml:space="preserve" xmlns="http://www.w3.org/2000/svg">
<path d="m121 77.663c-12.74 1.47-25.52 2.21-38.32 2.46 11.17 9.97 22.74 19.59 36.17 26.23 5.79 2.85 0.72 11.47-5.04 8.63-13.4-6.61-24.79-16.11-35.89-25.95 0.25 13.65 0.49 27.31 0.74 40.97 0.12 6.45-9.88 6.44-10 0l-0.72-39.66c-3.38 4.23-6.91 8.38-10.75 11.93-5.17 4.77-11.63 8.56-15.88 14.25-3.81 5.1-12.49 0.13-8.63-5.05 4.9-6.56 11.7-10.6 17.44-16.27 4.67-4.62 9.02-9.82 13.19-15.03-15.45-0.21-30.9-0.96-46.31-1.84-6.41-0.37-6.45-10.37 0-10 13 0.74 26.03 1.39 39.07 1.7-12.95-10.67-26.26-21.25-32.56-37.37-2.35-6.01 7.32-8.6 9.64-2.66 6.23 15.93 21.68 25.84 34.36 36.57-0.28-15.53-0.57-31.05-0.85-46.57-0.11-6.46 9.89-6.44 10 0 0.26 14.16 0.52 28.32 0.77 42.49 8.4-10.24 17.2-20.1 27.36-28.7 4.9-4.13 12.01 2.91 7.08 7.08-10.36 8.75-19.19 18.82-27.72 29.22 12.3-0.28 24.59-1.02 36.85-2.43 6.4-0.73 6.33 9.28 0 10z" fill="#fff"/>
</svg>
