<?xml version="1.0" encoding="utf-8"?>
<!-- Generator: Adobe Illustrator 17.0.0, SVG Export Plug-In . SVG Version: 6.00 Build 0)  -->
<!DOCTYPE svg PUBLIC "-//W3C//DTD SVG 1.1//EN" "http://www.w3.org/Graphics/SVG/1.1/DTD/svg11.dtd">
<svg version="1.1" id="Layer_1" xmlns="http://www.w3.org/2000/svg" xmlns:xlink="http://www.w3.org/1999/xlink" x="0px" y="0px"
	 width="143.333px" height="144.333px" viewBox="0 0 143.333 144.333" enable-background="new 0 0 143.333 144.333"
	 xml:space="preserve">
<path fill="#FFFFFF" d="M121.003,77.663c-12.74,1.47-25.52,2.21-38.32,2.46c11.17,9.97,22.74,19.59,36.17,26.23
	c5.79,2.85,0.72,11.47-5.04,8.63c-13.4-6.61-24.79-16.11-35.89-25.95c0.25,13.65,0.49,27.31,0.74,40.97c0.12,6.45-9.88,6.44-10,0
	c-0.24-13.22-0.48-26.44-0.72-39.66c-3.38,4.23-6.91,8.38-10.75,11.93c-5.17,4.77-11.63,8.56-15.88,14.25
	c-3.81,5.1-12.49,0.13-8.63-5.05c4.9-6.56,11.7-10.6,17.44-16.27c4.67-4.62,9.02-9.82,13.19-15.03c-15.45-0.21-30.9-0.96-46.31-1.84
	c-6.41-0.37-6.45-10.37,0-10c13,0.74,26.03,1.39,39.07,1.7c-12.95-10.67-26.26-21.25-32.56-37.37c-2.35-6.01,7.32-8.6,9.64-2.66
	c6.23,15.93,21.68,25.84,34.36,36.57c-0.28-15.53-0.57-31.05-0.85-46.57c-0.11-6.46,9.89-6.44,10,0
	c0.26,14.16,0.52,28.32,0.77,42.49c8.4-10.24,17.2-20.1,27.36-28.7c4.9-4.13,12.01,2.91,7.08,7.08
	c-10.36,8.75-19.19,18.82-27.72,29.22c12.3-0.28,24.59-1.02,36.85-2.43C127.403,66.933,127.333,76.943,121.003,77.663z"/>
</svg>
