<?xml version="1.0" encoding="utf-8"?>
<!-- Generator: Adobe Illustrator 17.0.0, SVG Export Plug-In . SVG Version: 6.00 Build 0)  -->
<!DOCTYPE svg PUBLIC "-//W3C//DTD SVG 1.1//EN" "http://www.w3.org/Graphics/SVG/1.1/DTD/svg11.dtd">
<svg version="1.1" id="Layer_1" xmlns="http://www.w3.org/2000/svg" xmlns:xlink="http://www.w3.org/1999/xlink" x="0px" y="0px"
	 width="143.333px" height="144.333px" viewBox="0 0 143.333 144.333" enable-background="new 0 0 143.333 144.333"
	 xml:space="preserve">
<path fill="#FFFFFF" d="M89.837,93.105c7.147-2.119,14.388-3.606,21.546-5.614c5.295-1.486,11.702-4.723,10.463-11.094
	c-0.959-4.933-8.776-8.984-12.66-11.252c-3.667-2.142-11.396-4.986-13.092-9.225c-2.422-6.053-10.532-3.716-9.643,2.658
	c0.031,0.219,0.061,0.439,0.092,0.658c0.79,5.663,9.931,4.192,9.821-1.329c-0.109-5.471,1.847-10.72,2.062-16.194
	c0.129-3.287,0.076-6.582-0.232-9.858c-0.624-6.651-3.398-14.716-11.553-13.084c-6.079,1.217-11.604,7.909-15.743,12.05
	c-2.366,2.367-4.683,4.781-7.1,7.096c-1.923,1.842-4.41,2.849-5.319,5.64c2.05-1.164,4.1-2.328,6.151-3.492
	c-9.825-2.967-19.686-14.219-30.876-10.43c-6.952,2.354-7.962,10.234-6.323,16.425c1.071,4.045,3.353,7.816,5.28,11.494
	c1.128,2.152,2.265,4.298,3.414,6.439c0.569,1.057,1.145,2.11,1.726,3.16c1.346,2.448,1.065,1.205,1.065,1.04
	c0.825-1.439,1.651-2.878,2.476-4.317c-6.01,3.996-10.132,10.364-14.443,16.057c-3.534,4.666-7.689,10.713-4.607,16.624
	c2.708,5.193,11.155,5.462,16.132,5.653c7.289,0.28,14.985-0.064,22.06-1.878c-1.284-3.046-2.569-6.092-3.853-9.139
	c-0.06,0.029-0.121,0.058-0.181,0.087c-1.923,0.919-2.959,3.665-2.298,5.647c2.382,7.14,7.116,12.74,11.292,18.873
	c3.432,5.04,7.782,11.096,14.633,9.763c5.169-1.006,6.88-8.073,7.716-12.334c1.557-7.943,3.574-15.75,5.485-23.613
	c1.522-6.265-8.12-8.923-9.643-2.658c-2.219,9.131-3.857,18.56-6.424,27.581c-0.13,0.535-0.329,1.041-0.596,1.519
	c-0.065,0.116-0.13,0.232-0.196,0.349c1.929-0.335,2.135-0.943,0.618-1.824c-1.834-1.83-3.202-4.18-4.646-6.315
	c-3.094-4.57-6.821-8.676-8.596-13.999c-0.766,1.882-1.532,3.764-2.298,5.647c0.06-0.029,0.121-0.058,0.181-0.087
	c5.254-2.512,1.483-10.507-3.853-9.139c-5.715,1.466-11.708,1.533-17.581,1.55c-2.018,0.006-4.029-0.116-6.035-0.323
	c-0.944-0.098-1.885-0.379-2.797-0.626c-1.59-0.43-0.591,2.075-0.07,0.255c1.168-4.071,5.146-7.462,7.599-10.794
	c2.214-3.008,4.288-6.139,7.448-8.24c2.025-1.346,2.944-3.761,2.297-6.114c-0.851-3.092-3.319-6.224-4.834-9.049
	c-1.749-3.262-3.494-6.533-5.163-9.837c-1.131-2.24-4.659-9.315,0.345-8.378c8.37,1.568,14.843,8.147,22.887,10.576
	c2.7,0.815,5.323-0.953,6.151-3.492c0.03-0.092,0.06-0.185,0.09-0.277c-0.766,0.996-1.532,1.992-2.298,2.988
	c8.175-4.417,13.376-13.651,20.878-19.09c0.569-0.412,1.335-0.997,1.955-1.25c1.333-0.544-1.747-1.021-1.373-0.368
	c1.259,2.2,1.024,5.808,1.094,8.241c0.21,7.298-2.25,14.215-2.106,21.448c3.274-0.443,6.548-0.886,9.821-1.329
	c-0.031-0.219-0.061-0.439-0.092-0.658c-3.214,0.886-6.429,1.772-9.643,2.658c2.148,5.368,6.639,8.586,11.41,11.57
	c2.327,1.455,4.756,2.743,7.125,4.126c1.598,0.933,6.977,3.548,7.351,5.472c0.168-1.284,0.336-2.569,0.504-3.853
	c-1.245,2.698-9.922,3.321-12.51,3.854c-4.478,0.923-8.777,2.418-13.153,3.715C81.01,85.29,83.639,94.942,89.837,93.105
	L89.837,93.105z"/>
</svg>
