<?xml version="1.0" encoding="UTF-8"?>
<!DOCTYPE svg  PUBLIC '-//W3C//DTD SVG 1.1//EN'  'http://www.w3.org/Graphics/SVG/1.1/DTD/svg11.dtd'>
<svg enable-background="new 0 0 143.333 144.333" version="1.1" viewBox="0 0 143.33 144.33" xml:space="preserve" xmlns="http://www.w3.org/2000/svg">
<path d="m78.81 27.683c-6.847 5.221-10.468 12.944-13.369 20.864-2.916 7.961-5.231 17.105-4.365 25.621 0.976 9.594 6.05 18.45 13.368 24.625 8.411 7.098 19.215 8.426 29.227 12.029v-9.643c-15.82 6.307-49.302 16.067-57.973-5.966-4.731-12.02-1.389-27.671 4.774-38.553 6.932-12.238 19.765-18.343 33.191-20.506 6.354-1.023 3.648-10.659-2.658-9.643-15.82 2.549-29.844 10.404-38.552 24.076-8.23 12.923-11.364 31.628-6.739 46.321 9.404 29.876 48.732 22.638 70.615 13.913 4.616-1.84 4.873-7.889 0-9.643-7.912-2.847-16.263-3.991-23.492-8.531-6.695-4.204-11.121-12.18-11.909-19.936-0.639-6.285 1.418-12.948 3.266-18.876 1.836-5.889 4.544-13.616 9.663-17.518 5.055-3.854 0.083-12.546-5.047-8.634z" fill="#fff"/>
</svg>
