<?xml version="1.0" encoding="utf-8"?>
<!-- Generator: Adobe Illustrator 17.0.0, SVG Export Plug-In . SVG Version: 6.00 Build 0)  -->
<!DOCTYPE svg PUBLIC "-//W3C//DTD SVG 1.1//EN" "http://www.w3.org/Graphics/SVG/1.1/DTD/svg11.dtd">
<svg version="1.1" id="Layer_1" xmlns="http://www.w3.org/2000/svg" xmlns:xlink="http://www.w3.org/1999/xlink" x="0px" y="0px"
	 width="143.333px" height="144.333px" viewBox="0 0 143.333 144.333" enable-background="new 0 0 143.333 144.333"
	 xml:space="preserve">
<path fill="#FFFFFF" d="M78.81,27.683c-6.847,5.221-10.468,12.944-13.369,20.864c-2.916,7.961-5.231,17.105-4.365,25.621
	c0.976,9.594,6.05,18.45,13.368,24.625c8.411,7.098,19.215,8.426,29.227,12.029c0-3.214,0-6.429,0-9.643
	c-15.82,6.307-49.302,16.067-57.973-5.966c-4.731-12.02-1.389-27.671,4.774-38.553c6.932-12.238,19.765-18.343,33.191-20.506
	c6.354-1.023,3.648-10.659-2.658-9.643C65.185,29.06,51.161,36.915,42.453,50.587c-8.23,12.923-11.364,31.628-6.739,46.321
	c9.404,29.876,48.732,22.638,70.615,13.913c4.616-1.84,4.873-7.889,0-9.643c-7.912-2.847-16.263-3.991-23.492-8.531
	c-6.695-4.204-11.121-12.18-11.909-19.936c-0.639-6.285,1.418-12.948,3.266-18.876c1.836-5.889,4.544-13.616,9.663-17.518
	C88.912,32.463,83.94,23.771,78.81,27.683L78.81,27.683z"/>
</svg>
