<?xml version="1.0" encoding="UTF-8"?>
<!DOCTYPE svg  PUBLIC '-//W3C//DTD SVG 1.1//EN'  'http://www.w3.org/Graphics/SVG/1.1/DTD/svg11.dtd'>
<svg enable-background="new 0 0 143.333 144.333" version="1.1" viewBox="0 0 143.33 144.33" xml:space="preserve" xmlns="http://www.w3.org/2000/svg">

	
		<path d="m103.53 56.35c-3.69-7.76-12.381-13.302-20.397-15.653-8.946-2.623-19.253-0.832-27.519 3.075-7.46 3.526-13.445 10.153-15.372 18.226-2.013 8.433 2.001 17.596 6.743 24.383 4.738 6.782 11.664 11.714 19.619 13.933 8.265 2.305 16.687 0.218 24.347-3.05 7.733-3.3 13.551-8.421 14.9-16.914 1.227-7.727 0.802-16.75-2.321-24-1.527-3.545-6.694-0.485-5.181 3.028 2.297 5.332 2.234 11.949 1.881 17.629-0.469 7.547-4.512 11.227-11.039 14.49-12.773 6.385-26.397 4.15-35.843-6.641-4.528-5.172-7.74-12.532-7.559-19.43 0.187-7.092 5.937-12.556 11.645-15.842 12.874-7.411 34.012-4.722 40.915 9.794 1.661 3.493 6.833 0.446 5.181-3.028z" fill="#fff"/>
	


	
		<path d="m48.278 47.762c-9.364-3.243-19.302-7.919-29.408-7.74-7.148 0.126-13.096 7.606-8.966 14.541 3.946 6.622 12.009 10.487 18.676 13.712 8.319 4.025 17.097 7.269 25.969 9.841 12.67 3.673 25.646 6.322 38.427 9.577 6.755 1.72 13.459 3.623 20.098 5.748 4.272 1.367 8.868 2.807 13.407 2.029 9.222-1.581 10.376-12.079 5.063-18.464-5.788-6.957-16.736-11.161-25.48-12.171-3.84-0.444-3.797 5.561 0 6 7.314 0.845 15.09 4.587 20.454 9.593 3.397 3.17 3.369 8.867-2.124 9.236-3.917 0.263-7.909-1.427-11.557-2.595-18.936-6.061-38.569-9.484-57.645-15.014-12.514-3.628-26.612-8.471-36.81-16.836-2.415-1.981-3.887-3.8-3.336-7.112 0.529-3.179 6.775-2.038 8.744-1.715 7.858 1.288 15.407 4.564 22.893 7.156 3.667 1.269 5.228-4.528 1.595-5.786z" fill="#fff"/>
	

</svg>
