<?xml version="1.0" encoding="UTF-8"?>
<!DOCTYPE svg  PUBLIC '-//W3C//DTD SVG 1.1//EN'  'http://www.w3.org/Graphics/SVG/1.1/DTD/svg11.dtd'>
<svg enable-background="new 0 0 143.333 144.333" version="1.1" viewBox="0 0 143.33 144.33" xml:space="preserve" xmlns="http://www.w3.org/2000/svg">
<path d="m77.563 69.533c0 0.23-0.01 0.47-0.03 0.71-0.01-0.14-0.01-0.27-0.01-0.41 0-0.11 0.01-0.21 0.04-0.3z" fill="#fff"/>
<path d="m96.713 49.243c-0.32 0.06-0.65 0.12-0.97 0.18-0.41-0.35-0.83-0.71-1.25-1.09 0.74 0.31 1.48 0.61 2.22 0.91z"/>
<path d="m98.093 49.793c-0.16 0.4-0.33 0.81-0.49 1.21-0.2-0.17-0.39-0.33-0.58-0.5-0.07-0.06-0.15-0.13-0.23-0.2 0.43-0.17 0.87-0.34 1.3-0.51z"/>
<path d="m139.52 43.463c-0.61-2.31-3.85-2.87-5.8-3.11-3.23-0.42-6.4-0.99-9.6-1.55-0.96-2.76-1.76-5.55-2.74-8.3-0.83-2.35-2.48-5.15-5.32-4.39-2.2 0.58-3.8 4.23-4.7 6.05-0.82 1.64-1.81 4.95-3.5 6.04-2.26 0.07-4.49-0.53-6.76-0.47-1.49 0.04-2.97 0.17-4.44 0.41-2.99 0.48-6.55 1.98-5.56 5.61 0.13 0.48 0.34 0.94 0.6 1.39-33.93 7.16-63.93 28.48-84.99 55.68-1.35 1.74-0.21 5.14 2.43 4.18 8.57-3.13 17.16-6.26 25.8-9.19 0.09 0.5 0.19 0.98 0.25 1.41 0.49 3.54 1.12 7.07 1.75 10.59 0.77 4.31 1.6 8.6 2.48 12.89 0.48 2.35 4.42 2.44 4.82 0 2.43-14.61 15.73-27.1 26.02-36.73 5.72-5.35 11.8-10.35 18.15-14.94 2.77-2 5.73-4.22 8.87-5.92-0.28 1.39-0.26 2.79 0.33 4.2 1.27 3.06 4.86 3.28 7.61 2.35 1.79-0.6 3.42-1.75 5.03-2.73 0.93-0.57 1.87-1.15 2.8-1.73 0.41-0.26 0.83-0.53 1.24-0.79 1.85 1.74 4.14 3.06 6.24 4.45 2.21 1.45 5.07 3.14 7.64 1.57 2.27-1.38 2.13-5.2 2.07-7.45-0.08-2.61-0.33-5.32-0.96-7.89 2.27-1.31 4.19-3.1 6.28-4.73 2.17-1.7 4.77-3.85 3.96-6.9zm-102.93 46.53c-6.84 2.27-13.63 4.69-20.41 7.15 20.43-23.53 47.7-41.44 78.49-47.51l0.63 1.26c-22 8.75-43.67 20.47-58.71 39.1zm63.49-33.53c-4.85 1.63-9.24 4.77-13.38 7.67-7.04 4.94-13.67 10.48-19.98 16.31-8.6 7.95-19.06 18.05-24.32 29.51l-0.21-1.11c-0.52-2.79-1.01-5.6-1.48-8.4-0.22-1.38-1.15-4.28-1.19-6.18 14.83-19.29 37.66-31.05 59.9-39.65 0.53-0.2 0.96-0.51 1.26-0.89l0.39 0.42c-0.27 0.76-0.61 1.54-0.99 2.32zm34.58-11.3c-0.77 0.89-1.79 1.57-2.71 2.29-1.87 1.46-3.53 3.16-5.7 4.14-1.2 0.28-2.27 1.55-1.8 2.97 0.83 2.54 1.05 5.24 1.23 7.9 0.06 0.91 0.07 1.82 0.04 2.73-0.02 0.43-0.12 0.86-0.2 1.28-1.83-0.45-3.44-2.09-4.99-3.08-1.42-0.91-2.9-1.75-3.95-3.11-0.66-0.88-1.78-1.22-2.83-0.85-1.37 0.47-2.71 1.68-3.94 2.45-1.42 0.89-2.84 1.78-4.28 2.63-0.98 0.58-4.07 2.39-3.8 0.1 0.46-3.83 3.23-6.95 4.09-10.66 0.18-0.82-0.13-1.59-0.71-2.09-1.77-2.59-4.64-4.4-7.05-6.53-0.24-0.21-0.48-0.42-0.71-0.64-0.45-0.43-0.87-0.87-1.26-1.34-0.1-0.13-0.23-0.28-0.35-0.43 0.97-0.42 2.33-0.44 3.29-0.53 3.29-0.32 6.49 0.58 9.75 0.3v-0.01c0.1-0.01 0.2-0.03 0.3-0.05s0.2-0.04 0.29-0.06c0.64-0.13 1.05-0.49 1.28-0.94 1.43-1.19 2.41-2.81 3.31-4.5 0.59-1.1 1.09-2.23 1.65-3.35 0.24-0.49 0.77-1.74 1.35-2.6 0.67 1.36 1.02 3.69 1.26 4.54 0.55 2 1.36 3.89 2.08 5.83v0.01c0.19 0.7 0.73 1.3 1.68 1.46 4.19 0.73 8.5 1.18 12.65 2.07 0.02 0 0.04 0.01 0.06 0.01l-0.03 0.06z" fill="#fff"/>
</svg>
