<?xml version="1.0" encoding="utf-8"?>
<!-- Generator: Adobe Illustrator 17.0.0, SVG Export Plug-In . SVG Version: 6.00 Build 0)  -->
<!DOCTYPE svg PUBLIC "-//W3C//DTD SVG 1.1//EN" "http://www.w3.org/Graphics/SVG/1.1/DTD/svg11.dtd">
<svg version="1.1" id="Layer_1" xmlns="http://www.w3.org/2000/svg" xmlns:xlink="http://www.w3.org/1999/xlink" x="0px" y="0px"
	 width="143.333px" height="144.333px" viewBox="0 0 143.333 144.333" enable-background="new 0 0 143.333 144.333"
	 xml:space="preserve">
<g>
	<path fill="#FFFFFF" d="M57.024,59.068c4.987-1.478,10.039-2.516,15.034-3.917c3.695-1.037,8.165-3.296,7.301-7.741
		c-0.669-3.442-6.123-6.268-8.833-7.851c-2.559-1.494-7.951-3.479-9.135-6.437c-1.69-4.224-7.349-2.593-6.728,1.855
		c0.021,0.153,0.043,0.306,0.064,0.459c0.551,3.951,6.929,2.925,6.853-0.927c-0.076-3.817,1.289-7.479,1.439-11.299
		c0.09-2.294,0.053-4.593-0.162-6.878c-0.436-4.641-2.371-10.268-8.061-9.129c-4.241,0.849-8.097,5.519-10.984,8.408
		c-1.651,1.651-3.267,3.336-4.954,4.951c-1.342,1.285-3.077,1.988-3.711,3.935c1.431-0.812,2.861-1.624,4.292-2.437
		c-6.856-2.07-13.735-9.921-21.543-7.278c-4.85,1.642-5.555,7.141-4.412,11.46c0.747,2.823,2.339,5.454,3.684,8.02
		c0.787,1.501,1.581,2.999,2.382,4.493c0.397,0.737,0.799,1.472,1.204,2.205c0.939,1.708,0.743,0.841,0.743,0.726
		c0.576-1.004,1.152-2.008,1.728-3.012c-4.193,2.788-7.069,7.231-10.078,11.203c-2.466,3.255-5.365,7.475-3.214,11.599
		c1.889,3.624,7.783,3.811,11.256,3.944c5.086,0.195,10.455-0.044,15.392-1.31c-0.896-2.125-1.792-4.251-2.688-6.376
		c-0.042,0.02-0.084,0.04-0.127,0.061c-1.342,0.642-2.064,2.557-1.603,3.94c1.662,4.982,4.965,8.889,7.879,13.169
		c2.395,3.517,5.43,7.742,10.21,6.812c3.607-0.702,4.801-5.633,5.383-8.606c1.086-5.542,2.494-10.989,3.827-16.476
		c1.062-4.371-5.666-6.226-6.728-1.855c-1.548,6.371-2.691,12.95-4.482,19.244c-0.091,0.373-0.23,0.726-0.416,1.06
		c-0.046,0.081-0.091,0.162-0.137,0.243c1.346-0.234,1.49-0.658,0.431-1.273c-1.28-1.277-2.234-2.917-3.242-4.406
		c-2.159-3.189-4.759-6.053-5.998-9.768c-0.534,1.313-1.069,2.627-1.603,3.94c0.042-0.02,0.084-0.04,0.127-0.061
		c3.666-1.753,1.035-7.331-2.688-6.376c-3.988,1.023-8.169,1.07-12.267,1.081c-1.408,0.004-2.811-0.081-4.211-0.226
		c-0.658-0.068-1.316-0.264-1.952-0.436c-1.109-0.3-0.413,1.448-0.049,0.178c0.815-2.841,3.59-5.206,5.302-7.532
		c1.545-2.099,2.992-4.283,5.196-5.749c1.413-0.939,2.054-2.624,1.603-4.266c-0.593-2.157-2.316-4.343-3.373-6.314
		c-1.221-2.276-2.438-4.558-3.602-6.864c-0.789-1.563-3.251-6.499,0.24-5.845c5.84,1.094,10.356,5.684,15.969,7.379
		c1.884,0.569,3.714-0.665,4.292-2.437c0.021-0.064,0.042-0.129,0.063-0.193c-0.534,0.695-1.069,1.39-1.603,2.085
		c5.704-3.082,9.333-9.525,14.568-13.32c0.397-0.288,0.931-0.696,1.364-0.872c0.93-0.379-1.219-0.713-0.958-0.257
		c0.878,1.535,0.715,4.053,0.763,5.75c0.146,5.092-1.57,9.918-1.469,14.965c2.284-0.309,4.569-0.618,6.853-0.927
		c-0.021-0.153-0.043-0.306-0.064-0.459c-2.243,0.618-4.485,1.237-6.728,1.855c1.499,3.746,4.632,5.991,7.961,8.073
		c1.623,1.015,3.319,1.914,4.972,2.879c1.115,0.651,4.868,2.476,5.129,3.818c0.117-0.896,0.234-1.792,0.352-2.688
		c-0.869,1.883-6.923,2.317-8.729,2.689c-3.125,0.644-6.124,1.687-9.178,2.592C50.866,53.616,52.699,60.35,57.024,59.068
		L57.024,59.068z"/>
	<g>
		<path fill="#FFFFFF" d="M87.532,112.073l-0.22-0.439c0.601-0.859,1.222-1.709,1.842-2.558c0.783-1.079,1.565-2.148,2.319-3.245
			c2.138-3.121,2.195-5.86,0.153-7.512c-0.773-0.639-1.871-0.945-3.35-0.945c-1.336,0-2.739,0.258-3.77,0.439L84,97.909
			c-0.401,0.067-0.878,0.181-1.394,0.305c-1.059,0.248-2.262,0.535-3.245,0.535c-0.267,0-0.506-0.019-0.697-0.067
			c-0.487-0.668-0.897-1.394-1.327-2.167c-0.496-0.878-1.012-1.794-1.67-2.663c-0.935-1.193-1.823-2.195-2.711-3.064
			c-1.222-1.212-3.112-2.663-5.145-2.663c-1.279,0-2.434,0.592-3.331,1.708c-1.527,1.899-1.718,4.839-1.871,7.206
			c-0.029,0.391-0.048,0.773-0.086,1.117c-0.038,0.487-0.086,0.974-0.124,1.46c-0.067,0.84-0.134,1.68-0.229,2.529
			c-0.01,0.019-0.01,0.048-0.01,0.067c-0.849,0.21-1.775,0.372-2.739,0.525c-3.092,0.515-6.605,1.098-8.476,4.171
			c-1.833,3.007,0.057,6.29,2.577,8.075c1.212,0.849,2.568,1.393,3.885,1.919c0.305,0.124,0.611,0.248,0.907,0.372
			c0.907,0.372,1.814,0.735,2.72,1.098c0.153,0.067,0.315,0.124,0.468,0.191c-0.115,1.623-0.01,3.245,0.086,4.83
			c0.029,0.449,0.057,0.888,0.076,1.317c0.105,2.052,0.286,5.88,3.512,7.225c0.477,0.191,0.993,0.296,1.527,0.296
			c2.224,0,4.4-1.689,5.841-2.797l0.086-0.067c1.919-1.489,3.503-2.921,4.811-4.371c1.393,0.544,2.844,0.916,4.247,1.289
			c0.611,0.153,1.212,0.315,1.823,0.487c1.346,0.372,2.663,0.716,3.99,0.716c1.747,0,3.131-0.62,4.114-1.842
			c1.871-2.281,0.01-5.67-0.697-6.939C89.727,116.53,88.61,114.268,87.532,112.073z M81.012,112.674
			c0.649,1.308,1.336,2.606,2.014,3.904c0.754,1.432,1.527,2.892,2.243,4.362c-0.124-0.038-0.258-0.076-0.391-0.115l-0.601-0.181
			c-0.563-0.162-1.126-0.305-1.699-0.439c-1.365-0.344-2.663-0.668-3.827-1.279l-0.21-0.2h-0.086
			c-0.544-0.372-1.212-0.573-1.88-0.573c-0.983,0-1.871,0.449-2.434,1.241c-1.269,1.747-2.94,3.217-4.849,4.82
			c-0.525,0.449-1.098,0.869-1.565,1.193c-0.067-0.63-0.057-1.317-0.048-1.985c0.01-0.563,0.019-1.136-0.009-1.67l-0.038-0.573
			c-0.076-1.241-0.153-2.424,0.162-3.522c0.41-1.365-0.105-2.825-1.279-3.637c-0.84-0.573-1.861-0.907-2.844-1.231
			c-0.41-0.134-0.811-0.267-1.174-0.41l-0.401-0.162c-1.241-0.496-2.482-0.993-3.694-1.518c-0.954-0.41-1.46-0.706-1.728-0.907
			c1.413-0.735,3.045-1.012,4.763-1.298c1.546-0.258,3.15-0.525,4.677-1.174c0.954-0.41,1.604-1.279,1.737-2.329
			c0.678-1.976,0.773-4.095,0.859-6.137c0.057-1.212,0.105-2.377,0.267-3.484c0.105,0.134,0.22,0.258,0.324,0.382
			c0.115,0.143,0.229,0.277,0.344,0.401c0.916,1.031,1.623,2.214,2.367,3.465c0.735,1.231,1.499,2.51,2.491,3.656l0.565,0.492
			l0.399,0.167c0.43,0.191,0.869,0.353,1.317,0.468c0.744,0.181,1.546,0.277,2.434,0.277c1.031,0,2.052-0.124,2.911-0.248
			c0.687-0.095,1.365-0.22,2.043-0.344c0.41-0.076,0.821-0.153,1.231-0.22c0.019-0.01,0.038-0.01,0.048-0.01
			c-0.153,0.172-0.305,0.344-0.439,0.496c-0.258,0.286-0.468,0.525-0.611,0.697c-0.869,1.088-1.613,2.243-2.338,3.36
			c-0.267,0.42-0.535,0.83-0.811,1.241l-0.029,0.057C80.592,110.565,80.516,111.672,81.012,112.674z"/>
	</g>
	<g>
		<path fill="#FFFFFF" d="M133.783,60.373l-0.51-0.41c-0.43-0.34-0.97-0.72-1.57-1.13c-1.62-1.14-3.62-2.54-4.24-3.96
			c0.23-1.16,0.62-2.28,1.02-3.47c0.44-1.28,0.9-2.6,1.15-3.98c0.34-1.86,0.56-3.65,0.65-5.31c0.09-1.83-0.03-5.17-1.86-7.1
			c-0.99-1.04-2.29-1.54-3.98-1.45c-3.01,0.16-6,2.49-8.4,4.36c-0.43,0.33-0.84,0.65-1.23,0.94c-0.45,0.33-0.89,0.67-1.34,1.01
			c-0.97,0.74-1.95,1.48-2.94,2.19c-0.17,0.11-0.33,0.22-0.5,0.32c-1.12-0.72-2.21-1.6-3.37-2.53c-2.88-2.33-5.87-4.74-9.56-4.74
			c-0.51,0-1.03,0.05-1.54,0.14c-4.21,0.78-5.63,5.06-5.17,8.97c0.22,1.88,0.88,3.69,1.51,5.44c0.15,0.4,0.29,0.8,0.43,1.19
			c0.41,1.17,0.83,2.34,1.25,3.51l0.48,1.28c-1.84,1.35-3.47,2.99-5.04,4.58l-1.28,1.28c-1.84,1.82-5.27,5.2-3.88,9.17
			c1.16,3.31,5.79,4.16,8.62,4.68c3.31,0.61,6.23,0.89,8.97,0.88c0.7,2.01,1.68,3.9,2.63,5.74c0.38,0.74,0.77,1.49,1.14,2.26
			c1.29,2.66,3.24,6.69,7.34,6.69c0.1,0,0.2-0.01,0.3-0.01c3.47-0.17,5.06-4.7,5.66-6.4c1.12-3.17,2.4-6.34,3.64-9.41l0.35-0.87
			c1.52-0.18,3.07-0.33,4.57-0.48c1.74-0.17,3.53-0.34,5.29-0.57c4.65-0.6,7.13-2.66,6.99-5.78
			C139.233,64.623,135.953,62.063,133.783,60.373z M128.553,66.833l-0.63-0.01c-0.38,0-0.7,0.01-0.93,0.02
			c-1.84,0.11-3.66,0.4-5.42,0.68c-0.62,0.1-1.23,0.19-1.86,0.28l-0.08,0.02c-1.19,0.09-2.14,0.81-2.6,1.99
			c-0.74,1.83-1.44,3.72-2.12,5.54c-0.92,2.45-1.86,4.98-2.91,7.42c-0.31-0.56-0.59-1.16-0.87-1.75c-0.13-0.28-0.26-0.57-0.4-0.85
			c-0.33-0.68-0.68-1.34-1.04-2.01c-0.93-1.76-1.81-3.42-2.25-5.27c-0.05-1.83-1.59-3.74-3.76-3.52c-0.72,0.08-1.49,0.12-2.28,0.12
			c-2.28,0-4.6-0.31-6.96-0.65c-0.95-0.14-1.97-0.34-3.1-0.62c-0.2-0.05-0.39-0.12-0.59-0.2c0.66-0.97,1.67-1.84,2.65-2.69
			c0.56-0.48,1.14-0.98,1.63-1.48l0.44-0.45c1.24-1.27,2.41-2.46,3.93-3.19c1.47-0.7,2.28-2.19,2.08-3.78
			c-0.16-1.26-0.72-2.52-1.25-3.75c-0.24-0.53-0.47-1.05-0.65-1.55c-0.67-1.85-1.34-3.71-1.97-5.59c-1.04-3.16-0.59-3.57-0.48-3.59
			c0.08,0,0.21,0.01,0.42,0.08c2.24,0.77,4.08,2.24,6.02,3.8c1.61,1.29,3.28,2.63,5.19,3.52c1.05,0.49,2.27,0.37,3.23-0.3
			c2.5-1.04,4.66-2.81,6.75-4.52c1.58-1.3,3.21-2.63,4.94-3.6c-0.01,0.65-0.11,1.34-0.2,1.99c-0.03,0.26-0.07,0.52-0.1,0.75
			c-0.21,1.91-0.8,3.77-1.36,5.57c-0.57,1.8-1.15,3.65-1.39,5.6l-0.08,0.79h0.07c-0.01,0.87,0.31,1.63,0.91,2.17
			c1.11,2.06,2.89,3.67,4.48,5.01c0.75,0.65,1.55,1.26,2.31,1.85c0.39,0.3,0.77,0.6,1.16,0.9c0.12,0.09,0.27,0.21,0.46,0.35
			c0.31,0.23,0.7,0.52,1.09,0.84C130.263,66.813,129.403,66.833,128.553,66.833z"/>
	</g>
</g>
</svg>
