<?xml version="1.0" encoding="UTF-8"?>
<!DOCTYPE svg  PUBLIC '-//W3C//DTD SVG 1.1//EN'  'http://www.w3.org/Graphics/SVG/1.1/DTD/svg11.dtd'>
<svg enable-background="new 0 0 143.333 144.333" version="1.1" viewBox="0 0 143.33 144.33" xml:space="preserve" xmlns="http://www.w3.org/2000/svg">
<g fill="#fff">
	<path d="m96.333 83.583c-7.416 0-7.416 11.5 0 11.5s7.416-11.5 0-11.5z"/>
	<path d="m100.33 76.833c-3.224 0-3.224 5 0 5 3.225 0 3.225-5 0-5z"/>
	<path d="m103.33 57.833c-3.224 0-3.224 5 0 5 3.225 0 3.225-5 0-5z"/>
	<path d="m106.1 42.566c-0.71-0.71-1.566-1.631-2.605-1.796-1.271-0.201-2.414 0.164-3.13 1.289-0.426 0.669-0.521 1.502-0.533 2.275-0.021 1.363 1.153 2.5 2.5 2.5 0.359 0 0.696-0.08 1.003-0.218 0.915 0.391 2.027 0.223 2.764-0.514 0.964-0.964 0.965-2.574 1e-3 -3.536z"/>
	<path d="m90.333 63.833c-0.126 0-0.236 0.019-0.356 0.026-0.115-0.099-0.241-0.187-0.366-0.277 0.302-0.694 0.472-1.455 0.472-2.25 0-0.017-4e-3 -0.033-4e-3 -0.05 0.159 0.029 0.325 0.05 0.504 0.05 3.224 0 3.224-5 0-5-0.989 0-1.671 0.472-2.054 1.125-0.471-0.507-1.021-0.939-1.642-1.254-0.053-2.831-1.902-5.62-5.555-5.62-4.153 0-5.979 3.607-5.48 6.781-0.974-0.745-2.401-0.685-3.288 0.201l-0.81 0.81c-0.141-0.013-0.272-0.042-0.423-0.042-1.526 0-2.589 0.708-3.213 1.694 0.216-1.349-0.172-2.807-1.178-3.735 0.13 0.013 0.257 0.04 0.391 0.04 0.251 0 0.496-0.03 0.736-0.076 0.304 0.876 1.058 1.576 2.264 1.576 2.874 0 3.179-3.962 0.93-4.826 0.039-0.22 0.07-0.444 0.07-0.674v-1c0-2.18-1.82-4-4-4s-4 1.82-4 4v1c0 1.214 0.575 2.302 1.451 3.04-0.149-0.015-0.292-0.04-0.451-0.04-2.61 0-3.889 2.043-3.855 4.063-0.429 0.241-0.842 0.518-1.211 0.871-0.035 0.033-0.072 0.063-0.107 0.095-0.657 0.474-1.304 0.966-1.783 1.613-0.185-0.072-0.374-0.134-0.567-0.187-2.239-1.698-5.509-1.555-7.542 0.479-0.712 0.712-1.17 1.585-1.425 2.506-0.466-0.116-0.963-0.19-1.51-0.19-7.416 0-7.416 11.5 0 11.5 0.32 0 0.62-0.029 0.912-0.069-0.814 1.478-0.119 3.819 2.088 3.819 1.884 0 2.665-1.706 2.347-3.124 1.086 1.429 2.839 2.374 4.653 2.374 0.161 0 0.321-0.01 0.481-0.024 5e-3 0.044 0.018 0.086 0.024 0.13-0.568 0.27-1.107 0.614-1.571 1.079-0.612 0.612-1.037 1.341-1.311 2.117-0.899 0.083-1.775 0.444-2.451 1.12-1.541 1.541-1.541 4.116 0 5.657l1 1c1.429 1.429 3.735 1.515 5.294 0.295 2.147 1.041 4.839 0.704 6.601-1.058 0.717-0.717 1.176-1.595 1.429-2.522 0.017 0.013 0.033 0.03 0.05 0.043 0.756 0.944 1.798 1.645 2.996 1.965-0.026 0.146-0.044 0.295-0.041 0.448 7e-3 0.424 0.09 0.821 0.228 1.205-0.4-0.422-0.97-0.705-1.728-0.705-3.224 0-3.224 5 0 5 0.672 0 1.195-0.225 1.587-0.568-0.03 1.272 0.771 2.568 2.413 2.568 2.38 0 2.998-2.721 1.863-4.148 0.946-0.357 1.637-1.33 1.637-2.352 0-0.965-0.539-1.742-1.313-2.161-0.011-0.02-0.028-0.035-0.039-0.054 0.947-0.627 1.705-1.524 2.154-2.57 0.831 1.384 2.263 2.396 4.296 2.516-0.126 1.333 0.672 2.77 2.401 2.77 0.184 0 0.354-0.021 0.516-0.051 0.159 0.033 0.321 0.051 0.484 0.051 0.965 0 1.742-0.539 2.161-1.313 0.787-0.422 1.339-1.233 1.339-2.188 0-1.007-0.636-1.916-1.526-2.303 0.763-1.632 0.766-3.631 0.036-5.277 0.948-0.333 1.705-0.901 2.273-1.61 0.401 0.414 0.968 0.69 1.717 0.69 3.224 0 3.224-5 0-5-0.162 0-0.31 0.021-0.456 0.045-7e-3 -0.109-0.034-0.215-0.046-0.323 2.071-0.973 3.091-3.151 3.061-5.315 0.563-0.459 0.942-1.136 0.942-1.907 1e-3 -1.361-1.136-2.5-2.499-2.499zm-40.451 11.055c0.274-0.226 0.52-0.479 0.738-0.752 0.053 0.449 0.164 0.882 0.33 1.293-0.283-0.257-0.634-0.454-1.068-0.541z"/>
	<path d="m55.333 51.833c-1.363 0-2.5 1.137-2.5 2.5v1c0 1.363 1.137 2.5 2.5 2.5s2.5-1.137 2.5-2.5v-1c0-1.362-1.137-2.5-2.5-2.5z"/>
	<path d="m86.333 46.833c-3.224 0-3.224 5 0 5 3.225 0 3.225-5 0-5z"/>
	<path d="m50.333 95.833c-3.224 0-3.224 5 0 5 3.225 0 3.225-5 0-5z"/>
	<path d="m88.333 101.83h-1c-1.363 0-2.5 1.137-2.5 2.5s1.137 2.5 2.5 2.5h1c1.363 0 2.5-1.137 2.5-2.5s-1.137-2.5-2.5-2.5z"/>
	<path d="m56.333 45.833c-1.363 0-2.5 1.137-2.5 2.5v1c0 1.363 1.137 2.5 2.5 2.5s2.5-1.137 2.5-2.5v-1c0-1.362-1.137-2.5-2.5-2.5z"/>
	<path d="m82.333 33.833c-3.224 0-3.224 5 0 5 3.225 0 3.225-5 0-5z"/>
	<path d="m41.101 57.566c-0.963-0.963-2.573-0.964-3.536 0-0.457 0.457-0.954 0.934-1.266 1.506-0.386 0.708-0.466 1.469-0.466 2.262-1e-3 1.363 1.138 2.5 2.5 2.5 1.348 0 2.468-1.112 2.495-2.454 0.092-0.092 0.181-0.187 0.273-0.279 0.963-0.963 0.964-2.572 0-3.535z"/>
	<path d="m69.333 104.83c-3.224 0-3.224 5 0 5 3.225 0 3.225-5 0-5z"/>
	<path d="m120.33 82.833c-3.224 0-3.224 5 0 5 3.225 0 3.225-5 0-5z"/>
	<path d="m29.333 114.83c-3.224 0-3.224 5 0 5 3.225 0 3.225-5 0-5z"/>
	<path d="m32.333 23.833c-1.363 0-2.5 1.137-2.5 2.5v1c0 1.363 1.137 2.5 2.5 2.5s2.5-1.137 2.5-2.5v-1c0-1.362-1.137-2.5-2.5-2.5z"/>
	<path d="m70.333 130.83c-3.224 0-3.224 5 0 5 3.225 0 3.225-5 0-5z"/>
	<path d="m101.33 105.33c0.101-2.18-1.896-4-4-4-1.76 0-3.135 1.114-3.708 2.634-0.171 0.198-0.341 0.398-0.507 0.632-0.56 0.786-0.742 1.795-0.785 2.734-0.1 2.18 1.896 4 4 4 1.76 0 3.135-1.114 3.708-2.634 0.171-0.198 0.341-0.398 0.507-0.632 0.56-0.785 0.742-1.795 0.785-2.734z"/>
	<path d="m72.333 28.833c-3.224 0-3.224 5 0 5 3.225 0 3.225-5 0-5z"/>
	<path d="m53.101 103.57c-0.963-0.963-2.572-0.963-3.536 0l-1 1c-0.963 0.963-0.963 2.572 0 3.536 0.963 0.963 2.572 0.963 3.536 0l1-1c0.963-0.964 0.963-2.573 0-3.536z"/>
	<path d="m39.333 79.833c-3.224 0-3.224 5 0 5 3.225 0 3.225-5 0-5z"/>
	<path d="m103.33 64.333h-1c-2.18 0-4 1.82-4 4s1.82 4 4 4h1c2.18 0 4-1.82 4-4s-1.819-4-4-4z"/>
	<path d="m35.263 77.658c-0.33-1.867-1.979-3.325-3.93-3.325-2.179 0-4.001 1.82-4 4 1e-3 1.234 0.173 2.37 0.708 3.493 0.783 1.641 2.569 2.426 4.292 2.507 2.18 0.102 4-1.897 4-4 0-1.063-0.414-1.982-1.07-2.675z"/>
	<path d="m98.333 24.333c-1.38 0-2.585 0.712-3.303 1.779-1.018 0.71-1.697 1.849-1.697 3.221 0 2.104 1.82 4.101 4 4 1.831-0.084 3.282-0.881 4.292-2.413 0.466-0.707 0.695-1.754 0.708-2.587 0.034-2.18-1.845-4-4-4z"/>
	<path d="m49.333 46.333c-5.159 0-5.159 8 0 8s5.159-8 0-8z"/>
	<path d="m62.333 15.333c-5.159 0-5.159 8 0 8s5.159-8 0-8z"/>
	<path d="m86.333 93.333c-5.159 0-5.159 8 0 8s5.159-8 0-8z"/>
	<path d="m65.375 101.88c1.478-3.403-0.201-8.301-5.041-8.301-7.121 0-7.4 10.599-0.844 11.441-0.14 2.098 1.131 4.309 3.844 4.309 4.344 0 5.015-5.659 2.041-7.449z"/>
	<path d="m81.333 116.33c-5.159 0-5.159 8 0 8s5.159-8 0-8z"/>
	<path d="m58.333 29.583c-7.416 0-7.416 11.5 0 11.5s7.416-11.5 0-11.5z"/>
	<path d="m116.33 52.583c-7.416 0-7.416 11.5 0 11.5s7.416-11.5 0-11.5z"/>
	<path d="m45.333 120.58c-1.519 0-2.992 0.611-4.066 1.684-0.194 0.194-0.363 0.4-0.521 0.611-1.312 1.05-2.163 2.647-2.163 4.455 0 3.097 2.615 5.799 5.75 5.75 1.282-0.02 2.351-0.334 3.47-0.947 2.127-1.166 3.172-3.472 3.28-5.803 0.145-3.133-2.725-5.75-5.75-5.75z"/>
	<path d="m28.333 51.583c-7.416 0-7.416 11.5 0 11.5s7.416-11.5 0-11.5z"/>
	<path d="m14.833 82.583c-3.224 0-3.224 5 0 5 3.225 0 3.225-5 0-5z"/>
	<path d="m15.333 33.583c-3.224 0-3.224 5 0 5 3.225 0 3.225-5 0-5z"/>
	<path d="m124.58 122.33c-1.363 0-2.5 1.137-2.5 2.5v0.5c0 1.363 1.137 2.5 2.5 2.5s2.5-1.137 2.5-2.5v-0.5c0-1.362-1.137-2.5-2.5-2.5z"/>
	<path d="m121.33 38.333c-3.224 0-3.224 5 0 5 3.225 0 3.225-5 0-5z"/>
</g>
</svg>
