<?xml version="1.0" encoding="UTF-8" standalone="no"?>
<svg version="1.1" viewBox="0 0 143.333 144.333" xmlns="http://www.w3.org/2000/svg">
  <path fill="none" stroke="#fff" stroke-width="5" stroke-linecap="round" d="m 9.192462,17.390439 c 0,0 16.083776,0.29495 12.889324,13.22199 -3.194453,12.92704 16.178992,15.710019 31.217303,2.025477 15.038311,-13.684542 24.240375,-10.256034 28.457592,-7.165038 3.23039,2.74713 5.032401,6.265066 6.411321,10.202597">
    <animate attributeName="d" values="m 9.192462,17.390439 c 0,0 16.083776,0.29495 12.889324,13.22199 -3.194453,12.92704 20.072668,17.832334 31.217303,2.025477 11.144635,-15.806857 20.539599,-14.234752 24.756816,-11.143756 2.556489,1.955091 4.423853,3.712926 5.668221,6.181965; m 9.192462,17.390439 c 0,0 16.083776,0.29495 12.889324,13.22199 -3.194453,12.92704 16.178992,15.710019 31.217303,2.025477 15.038311,-13.684542 24.240375,-10.256034 28.457592,-7.165038 3.23039,2.74713 5.032401,6.265066 6.411321,10.202597; m 9.192462,17.390439 c 0,0 16.083776,0.29495 12.889324,13.22199 -3.194453,12.92704 20.072668,17.832334 31.217303,2.025477 11.144635,-15.806857 20.539599,-14.234752 24.756816,-11.143756 2.556489,1.955091 4.423853,3.712926 5.668221,6.181965" dur="3s" repeatCount="indefinite" calcMode="spline" keyTimes="0; 0.5; 1" keySplines="0.4 0 0.6 1; 0.4 0 0.6 1"/>
  </path>
  <g>
    <path fill="#fff" d="m 69.843,50.403 c -0.13,0.19 -0.23,0.38 -0.29,0.57 -9.1,1.77 -16.02,6.24 -21.4,13.83 -2.56,3.63 -2.9,7.51 -1.1,10.31 -5.33,5.31 -13.81,10.4 -12.41,19.03 0.82,5.07 4.2,11.18 9.16,12.15 -1.3,3.81 -2.21,7.76 -2.81,11.75 -0.54,3.57 -0.78,7.74 1.28,10.9 4.5,6.89 13.75,1.85 21.54,-4.68 -0.7,2.79 -1.13,5.59 -1.33,8.18 -0.6,7.88 6.19,9.81 12.42,7.49 9.11,-3.39 15.63,-10.97 21.16,-18.63 5.82,-8.08 10.45,-17.47 13.53,-27.05 6.24,8.41 16.2,16.11 23.04,9.37 5.19,-5.12 1.67,-13.94 -0.45,-19.49 -2.33,-6.09 -5.09,-12.03 -7.96,-17.88 4.34,-2 8.09,-5.46 10.57,-9.94 5.72,-10.34 1.2,-21.23 -9.01,-25.92 -0.01,-0.01 -0.02,-0.01 -0.03,-0.01 -0.02,-0.02 -0.04,-0.04 -0.07,-0.05 -10.06,-5.65 -20.67,-3.38 -27.31,5.85 -3.05,-1.66 -5.87,-2.29 -11.015,-1.55 -8.565,3.26 -13.435,9.75 -17.515,15.77 z m 32.11,-10.6 c 4.72,-8.04 13.48,-9.49 21.2,-5.15 0.2,0.11 0.4,0.2 0.6,0.25 0.01,0 0.02,0.01 0.03,0.01 5.36,2.27 8.16,6.49 8.38,11.25 -3.84,-9.21 -19.77,-11.77 -25.4,-1.98 -4.11,7.18 1.19,15.78 8.12,18.93 -2.24,-0.09 -4.52,-0.63 -6.69,-1.63 -8.96,-4.13 -11.05,-13.49 -6.24,-21.68 z m 4.79,26.49 c 4.2,1.94 8.58,2.35 12.69,1.53 0.5,0.99 1.02,1.99 1.55,3 -9.83,7.27 -33.27,-3.09 -30.28,-15.99 0.03,-0.13 0.04,-0.26 0.03,-0.38 1.41,0.12 2.79,0.28 4.1,0.46 0.27,0.04 0.54,0.04 0.78,0 1.91,4.81 5.8,8.93 11.13,11.38 z m -10.85,-25.75 c -1.34,3.1 -1.8,6.28 -1.5,9.33 -6.04,-0.69 -12.15,-0.63 -18.19,0.07 4.8,-6.87 10.97,-14.09 19.69,-9.4 z m -22.76,14.48 c 0.02,0.02 0.05,0.04 0.08,0.06 3.22,2.11 4.37,4.68 4.35,7.44 -0.01,0 -0.01,0 0,0.01 0,0.23 -0.01,0.47 -0.03,0.71 v 0.02 0.02 0.01 c -0.23,2.76 -1.51,5.69 -3,8.46 -0.4,-0.14 -0.86,-0.19 -1.36,-0.09 -1.84,0.35 -3.66,0.74 -5.49,1.1 0.28,-2.31 0.23,-4.65 -0.76,-6.81 -1.25,-2.74 -3.38,-4.77 -5.14,-7.16 3.41,-1.85 7.3,-3.05 11.35,-3.77 z m -17.28,8.26 c 1.14,-1.2 2.42,-2.26 3.8,-3.19 0.91,1.26 1.93,2.43 2.94,3.62 2.4,2.84 3.02,6.01 2.5,9.54 -2.11,0.38 -4.24,0.69 -6.4,0.83 -2.27,0.15 -4.8,0.16 -6.89,-0.88 -3.73,-1.88 2.63,-8.43 4.05,-9.92 z m -15.07,33.88 c -1.44,-2.69 -1.59,-5.4 -0.31,-8.19 2.03,-4.45 7.14,-7.32 10.53,-10.76 0.62,0.25 1.29,0.45 2.02,0.59 3.17,0.63 6.44,0.49 9.72,0.02 -6.92,5.92 -12.54,13.26 -16.54,21.59 -0.17,0.36 -0.34,0.72 -0.5,1.08 -2.34,0.71 -4.08,-2.79 -4.92,-4.33 z m 13.59,-1.31 c 1.21,-1.92 2.54,-3.75 3.98,-5.51 4.29,-1.46 8.56,0.79 11.23,4.29 3.25,4.27 4.57,9.11 2.61,14.17 -0.18,0.14 -0.35,0.31 -0.51,0.51 -0.52,0.68 -1.79,2.11 -3.5,3.87 0.54,-7.7 -6.32,-14.58 -13.81,-17.33 z m 2.74,27.18 c -0.02,0.02 -0.03,0.03 -0.04,0.05 h -0.01 c -4.68,3.45 -9.07,5.49 -10.78,2.87 -1.79,-2.76 -0.28,-7.86 0.25,-10.71 0.27,-1.46 0.61,-2.9 1.02,-4.31 3.34,-0.42 5.87,0.39 8.02,3.27 1.65,2.21 4.02,6.46 1.54,8.83 z m 7.66,-6.49 c -1.3,1.23 -2.7,2.5 -4.13,3.7 -0.1,-2.36 -1.31,-4.84 -2.54,-6.77 -2.45,-3.82 -5.68,-5.27 -9.74,-5.08 0.96,-2.8 2.15,-5.52 3.5,-8.15 0.38,-0.74 0.78,-1.48 1.2,-2.2 7.67,2.61 15.39,10.28 11.71,18.5 z m 2.71,15.9 c 0.04,-2.5 0.56,-5.49 1.45,-8.41 0.12,0.04 0.25,0.06 0.4,0.05 3.09,-0.12 5.88,1.98 7.92,4.12 0.74,0.77 1.81,2.13 2.4,3.51 -3.78,2.63 -12.31,7.75 -12.17,0.73 z m 20.34,-8.08 c -1.92,2.17 -3.98,4.14 -6.17,5.86 -0.55,-1.11 -1.28,-2.15 -1.96,-2.99 -2.36,-2.92 -6.04,-5.61 -9.92,-5.66 0.92,-2.39 2.09,-4.61 2.835,-5.495 0.745,-0.885 0.845,-0.945 0.945,-1.025 3.44,-2.71 15.4,5.01 14.27,9.31 z m 2.2,-2.6 c -1.12,-2.72 -4.26,-5.07 -6.31,-6.47 -2.09,-1.43 -5.11,-3.05 -7.92,-3.19 l 0.21,-0.27 c 0.32,-0.41 0.47,-0.82 0.49,-1.21 3.01,-2.81 7.55,-4.18 11.53,-4.53 2.16,-0.19 8.27,0.83 9.88,3.39 -2.27,4.36 -4.91,8.54 -7.88,12.28 z m 9.08,-14.67 c -2.08,-1.88 -5.59,-2.85 -7.89,-3.3 -5.25,-1.03 -12.08,1.15 -16.16,4.75 -0.06,0.06 -0.13,0.12 -0.19,0.18 0.03,-0.08 0.05,-0.15 0.07,-0.23 2.5,-8.77 -4.35,-21.59 -13.86,-21.24 2.32,-2.49 4.87,-4.77 7.58,-6.82 2.91,8.25 9.9,13.52 18.18,16.08 4.15,1.28 11.04,3.59 15.95,2.12 -1.08,2.83 -2.31,5.67 -3.68,8.46 z m 4.91,-11.88 c -3.75,3.18 -11.87,0.26 -15.94,-0.94 -7.92,-2.34 -14.76,-7.25 -17.29,-15.38 1.08,-0.76 2.19,-1.48 3.32,-2.16 0.12,-0.07 0.23,-0.15 0.33,-0.24 0.02,0 0.05,-0.01 0.07,-0.01 1.5,-0.28 1.99,-1.51 1.75,-2.66 0.85,-1.55 1.62,-3.12 2.25,-4.69 3.42,11.53 15.31,23.22 27.32,19.12 0.07,0.14 0.14,0.27 0.21,0.41 -0.58,2.13 -1.25,4.33 -2.02,6.55 z m -0.08,-11.98 c 0.16,0.82 0.45,1.74 0.85,2.74 -12.55,3.86 -24.77,-11.84 -24.76,-23.14 0,-0.11 -0.01,-0.21 -0.04,-0.3 0.01,-0.01 0.01,-0.01 0,-0.01 0.06,-2.89 -0.89,-5.62 -3.43,-7.99 3.94,-0.44 7.94,-0.48 11.72,-0.26 -1.92,8.54 3.92,13.76 10.93,17.47 4.1,2.18 9.59,3.91 14.74,3.73 -2.16,1.58 -4.1,3.53 -5.56,5.53 -1.27,-1.94 -5,-0.57 -4.45,2.23 z m 5.44,0.85 c 0.03,-0.05 0.06,-0.11 0.1,-0.18 0.47,-0.78 1.07,-1.48 1.66,-2.16 1.24,-1.45 2.73,-2.72 4.25,-3.87 2.01,-1.52 4.73,-3.28 7.42,-3.5 1.84,3.6 3.63,7.32 5,11.08 -5.06,0.67 -10.38,3.1 -12.33,7.72 -2.52,-2.69 -4.89,-5.82 -6.1,-9.09 z m 16.82,16.95 c -2.74,-0.07 -5.13,-2.5 -7,-4.2 -0.58,-0.53 -1.18,-1.09 -1.79,-1.69 1.05,-4.66 6.61,-6.78 11.24,-7.27 0.76,2.39 1.33,4.8 1.62,7.19 0.34,2.92 -0.84,6.05 -4.07,5.97 z"/>
    <animateTransform attributeName="transform" type="translate" values="0 -10; 0 0; 0 -10" dur="3s" repeatCount="indefinite" calcMode="spline" keyTimes="0; 0.5; 1" keySplines="0.4 0 0.6 1; 0.4 0 0.6 1"/>
  </g>
</svg>
