<?xml version="1.0" encoding="UTF-8"?>
<svg enable-background="new 0 0 143.333 144.333" version="1.1" viewBox="0 0 143.33 144.33" xmlns="http://www.w3.org/2000/svg"><path d="m98.296 108.097c.033.021.067.042.1.063-.233-.139-.393-.343-.482-.613.322.969 1.282 1.591 2.306 1.31.947-.26 1.632-1.336 1.31-2.306-.252-.758-.669-1.27-1.341-1.691-.867-.543-2.061-.188-2.565.673-.529.901-.193 2.023.672 2.564z" fill="#fff"/><path d="m121.003 104.715c-.363-.084-.726-.169-1.089-.253-.995-.231-2.027.295-2.306 1.31-.263.955.314 2.075 1.31 2.306.363.084.726.169 1.089.253.995.231 2.027-.295 2.306-1.31.262-.954-.314-2.075-1.31-2.306z" fill="#fff"/><path d="m111.033 119.833c-.619.526-1.119 1.279-1.042 2.13.092 1.018.783 1.875 1.875 1.875.952 0 1.967-.855 1.875-1.875-.031.275-.129.519-.292.73.076-.072.155-.141.236-.207.779-.662.679-1.973 0-2.652-.767-.767-1.874-.663-2.652-.001z" fill="#fff"/><path d="m92.087 123.255c.428.292-.126-.235.167.173-.054-.082-.102-.168-.144-.257.092.219.106.227.041.025-.271-.985-1.321-1.581-2.306-1.31s-1.581 1.322-1.31 2.306c.269.977.826 1.732 1.659 2.301.845.577 2.076.162 2.565-.673.544-.929.17-1.99-.672-2.565z" fill="#fff"/><path d="m103.096 93.425c-.897.605-1.38 1.37-1.763 2.365-.368.955.398 2.056 1.31 2.306 1.059.291 1.939-.357 2.306-1.31-.155.402.084-.143.133-.224-.162.194-.175.215-.039.063.15-.136.132-.123-.055.037.845-.571 1.214-1.64.673-2.565-.491-.838-1.717-1.244-2.565-.672z" fill="#fff"/><path d="m87.875 114.934c.181-.491.372-.982.5-1.491.249-.99-.309-2.031-1.31-2.306-.969-.266-2.057.319-2.306 1.31-.128.508-.319 1-.5 1.491-.353.96.387 2.053 1.31 2.306 1.048.288 1.954-.352 2.306-1.31z" fill="#fff"/><path d="m99.635 117.589c-.023-.138-.045-.275-.068-.413.085-.315.171-.631.256-.946-.012.022-.023.045-.035.067l.673-.673c-.029.016-.058.032-.088.048-.896.489-1.177 1.704-.673 2.565.528.901 1.668 1.162 2.565.673.899-.49 1.113-1.378.985-2.318-.138-1.015-1.421-1.553-2.306-1.31-1.082.299-1.447 1.296-1.309 2.307z" fill="#fff"/><path d="m74.442 125.44c-8.9555-6.4817-12.237-18.183-15.858-23.039-3.8886-5.2135-9.5225-8.2627-15.767-12.968 7.4238 2.2444 10.001 6.9807 12.258 5.5247 2.3519-1.5174-6.1975-11.363-13.872-18.819-7.2786-16.109-18.572-26.638-15.996-30.04 2.2444-1.5538 7.0196 7.0013 9.6682 5.5247 1.0359-14.33-23.998-31.94-23.653-46.96 3.2803 1.7265 9.1503 7.9418 13.121 8.6324 1.0359-3.7982-2.0303-5.9664-1.3812-9.6682 10.531 3.1076 19.894 24.519 22.271 22.789 1.8991-1.3812-2.0579-3.8167-0.51794-5.87 1.5538-2.0718 9.9179 5.7362 12.776 8.4597 4.9737 4.7396 9.8934-1.5255 14.157 1.5538 3.1076 2.2444 11.222 18.473 15.538 23.135 2.2775 2.4597 6.0426 2.0718 8.9776 4.3162 2.935 2.2444 9.4956 14.675 13.466 18.128 3.9709 3.4529 7.7691 7.0785 10.014 10.186 2.2444 3.1076 4.8346 11.022 6.9064 14.302" fill="none" stroke="#fff" stroke-linecap="round" stroke-linejoin="round" stroke-width="4"><animate attributeName="d" dur="1s" repeatCount="indefinite" values="M 74.442274,125.43769 C 65.486762,118.956 62.205613,107.25471 58.583895,102.39904 54.69529,97.185554 49.061396,94.136364 42.816486,89.431208 c 7.423826,2.244413 10.001111,6.98073 12.257945,5.524708 C 57.426351,93.438549 48.876911,83.593229 41.202874,76.13727 33.924306,60.028087 22.630637,49.499231 25.20648,46.096781 c 2.244413,-1.553824 7.019631,7.001301 9.668238,5.524708 C 35.910601,37.291778 10.876769,19.681772 11.222063,4.6614722 14.502358,6.3879434 20.37236,12.60324 24.343244,13.293828 25.379127,9.4955912 22.312922,7.327384 22.962067,3.6255895 33.493541,6.7332376 42.855801,28.144278 45.233546,26.415009 c 1.899118,-1.381177 -2.057892,-3.816735 -0.517942,-5.870002 1.553824,-2.071765 9.91787,5.7362 12.775887,8.45971 4.973683,4.739605 9.893407,-1.525486 14.157064,1.553823 3.107648,2.244413 11.222063,18.473242 15.538241,23.134714 2.277512,2.459713 6.042649,2.071766 8.97765,4.316178 2.935001,2.244413 9.495594,14.675006 13.466474,18.127948 3.97089,3.452942 7.76912,7.078532 10.01353,10.18618 2.24442,3.107648 4.83461,11.021851 6.90637,14.30214; m 74.442274,125.43769 c -8.955512,-6.48169 -9.973193,-18.0213 -13.594911,-22.87697 -3.888605,-5.21349 -8.714117,-5.029153 -14.959027,-9.734309 7.423826,2.244413 7.899319,1.483735 10.156153,0.02771 C 58.396409,91.336757 44.188298,83.593229 36.514261,76.13727 29.235693,60.028087 23.277342,53.541139 25.853185,50.138689 28.097598,48.584865 36.753048,53.906464 39.401655,52.429871 40.437538,38.10016 15.565382,26.633853 15.910676,11.613554 c 3.280295,1.726471 7.371858,5.19327 11.342742,5.883858 1.035883,-3.798237 -2.515351,-7.421531 -1.866206,-11.1233252 10.531474,3.1076481 16.498531,23.5486302 18.876276,21.8193612 1.899118,-1.381177 -0.926158,-9.475405 0.613792,-11.528672 1.553824,-2.071765 8.786136,10.586489 11.644153,13.309999 4.973683,4.739605 9.408378,-3.788954 13.672035,-0.709645 3.107648,2.244413 6.371774,13.461276 10.687952,18.122748 2.277512,2.459713 14.611493,6.598703 17.546494,8.843115 2.935006,2.244413 3.675246,15.160035 7.646126,18.612977 3.97089,3.452942 11.48768,11.605468 13.73209,14.713116 2.24442,3.107648 4.67293,7.788325 6.74469,11.068614; M 74.442274,125.43769 C 65.486762,118.956 62.205613,107.25471 58.583895,102.39904 54.69529,97.185554 49.061396,94.136364 42.816486,89.431208 c 7.423826,2.244413 10.001111,6.98073 12.257945,5.524708 C 57.426351,93.438549 48.876911,83.593229 41.202874,76.13727 33.924306,60.028087 22.630637,49.499231 25.20648,46.096781 c 2.244413,-1.553824 7.019631,7.001301 9.668238,5.524708 C 35.910601,37.291778 10.876769,19.681772 11.222063,4.6614722 14.502358,6.3879434 20.37236,12.60324 24.343244,13.293828 25.379127,9.4955912 22.312922,7.327384 22.962067,3.6255895 33.493541,6.7332376 42.855801,28.144278 45.233546,26.415009 c 1.899118,-1.381177 -2.057892,-3.816735 -0.517942,-5.870002 1.553824,-2.071765 9.91787,5.7362 12.775887,8.45971 4.973683,4.739605 9.893407,-1.525486 14.157064,1.553823 3.107648,2.244413 11.222063,18.473242 15.538241,23.134714 2.277512,2.459713 6.042649,2.071766 8.97765,4.316178 2.935001,2.244413 9.495594,14.675006 13.466474,18.127948 3.97089,3.452942 7.76912,7.078532 10.01353,10.18618 2.24442,3.107648 4.83461,11.021851 6.90637,14.30214"/></path><path d="m74.442 125.44c-8.9555-6.4817-9.9732-18.021-13.595-22.877-3.8886-5.2135-8.7141-5.0292-14.959-9.7343 7.4238 2.2444 7.8993 1.4837 10.156 0.02771 2.3519-1.5174-11.856-9.2609-19.53-16.717-7.2786-16.109-13.237-22.596-10.661-25.999 2.2444-1.5538 10.9 3.7678 13.548 2.2912 1.0359-14.33-23.836-25.796-23.491-40.816 3.2803 1.7265 7.3719 5.1933 11.343 5.8839 1.0359-3.7982-2.5154-7.4215-1.8662-11.123 10.531 3.1076 16.499 23.549 18.876 21.819 1.8991-1.3812-0.92616-9.4754 0.61379-11.529 1.5538-2.0718 8.7861 10.586 11.644 13.31 4.9737 4.7396 9.4084-3.789 13.672-0.70964 3.1076 2.2444 6.3718 13.461 10.688 18.123 2.2775 2.4597 14.611 6.5987 17.546 8.8431 2.935 2.2444 3.6752 15.16 7.6461 18.613 3.9709 3.4529 11.488 11.605 13.732 14.713 2.2444 3.1076 4.6729 7.7883 6.7447 11.069" display="none" fill="none" stroke="#fff" stroke-linecap="round" stroke-linejoin="round" stroke-width="4"/><path d="m78.943 109.75c-8.8487-7.3953-6.3919-14.123-19.323-22.206 4.668 2.0679 5.2363 3.5578 7.6313 3.3585-0.61889-3.7245-3.5297-5.5217-7.6883-10.284-2.602-7.0758-9.751-14.583-8.8918-17.522 2.5089 0.18677 2.6755 3.7104 5.5267 3.6327 1.2883-7.2845-13.721-21.917-13.209-26.679 2.9431 0.8824 3.9668 3.6155 7.4269 4.6615 1.463-2.2535-1.1156-2.931-0.86626-5.1794 4.8724-0.0076 11.915 14.063 15.108 15.886 0.76228-1.4771-0.85718-2.4161-0.08885-3.8881 2.3312-0.4301 3.2813 2.5049 6.0437 3.1955 2.7624 0.69059 3.9749-0.76935 5.5237 0.43313 2.4317 2.8911 5.5472 9.5476 7.7701 11.826 2.781 2.8501 4.3172 2.0718 6.0437 4.3162 1.7265 2.2444 5.6045 10.352 11.394 13.983" fill="none" stroke="#fff" stroke-linecap="round" stroke-linejoin="round" stroke-width="3"><animate attributeName="d" dur="1s" repeatCount="indefinite" values="m 78.943419,109.75344 c -8.848739,-7.39529 -6.391934,-14.122965 -19.32313,-22.205653 4.667956,2.067897 5.236316,3.557791 7.631312,3.358487 C 66.63271,87.181751 63.721918,85.384592 59.563256,80.622171 56.961306,73.546412 49.812224,66.039037 50.671425,63.1 c 2.508931,0.18677 2.675526,3.710401 5.526726,3.632651 1.288297,-7.284466 -13.720907,-21.917106 -13.209018,-26.678519 2.94307,0.8824 3.966849,3.615503 7.426852,4.661472 1.462961,-2.25349 -1.11565,-2.930966 -0.866261,-5.179413 4.872383,-0.0076 11.914669,14.063174 15.108136,15.885552 0.762285,-1.477084 -0.857183,-2.416051 -0.08885,-3.888091 2.331241,-0.430104 3.281304,2.504897 6.043658,3.195485 2.762354,0.690589 3.974918,-0.769346 5.523699,0.433131 2.431695,2.891079 5.547188,9.547634 7.770129,11.825824 2.780961,2.850078 4.317187,2.071765 6.043659,4.316178 1.726471,2.244412 5.604474,10.351766 11.393705,13.983407; M 78.943419,109.75344 C 70.09468,102.35815 74.653277,97.408914 61.722081,89.326226 c 4.667956,2.067897 5.559669,0.324265 7.954665,0.124961 -0.618891,-3.724523 -4.014712,-4.551624 -8.173374,-9.314045 -2.60195,-7.075759 -9.104327,-11.834637 -8.245126,-14.773674 2.508931,0.18677 3.322231,3.063696 6.173431,2.985946 1.288297,-7.284466 -13.397554,-18.036874 -12.885665,-22.798287 2.94307,0.8824 5.583612,4.423884 9.043615,5.469853 1.462961,-2.25349 -1.762355,-5.679463 -1.512966,-7.92791 4.872383,-0.0076 8.519466,12.608087 11.712933,14.430465 0.762285,-1.477084 -0.372154,-4.356167 0.396179,-5.828207 2.331241,-0.430104 2.796275,4.445013 5.558629,5.135601 2.762354,0.690589 3.974918,-0.769346 5.523699,0.433131 2.431695,2.891079 2.475338,7.445842 4.698279,9.724032 2.780961,2.850078 8.197419,3.688528 9.923891,5.932941 1.726471,2.244412 3.664358,8.735003 9.453589,12.366644; m 78.943419,109.75344 c -8.848739,-7.39529 -6.391934,-14.122965 -19.32313,-22.205653 4.667956,2.067897 5.236316,3.557791 7.631312,3.358487 C 66.63271,87.181751 63.721918,85.384592 59.563256,80.622171 56.961306,73.546412 49.812224,66.039037 50.671425,63.1 c 2.508931,0.18677 2.675526,3.710401 5.526726,3.632651 1.288297,-7.284466 -13.720907,-21.917106 -13.209018,-26.678519 2.94307,0.8824 3.966849,3.615503 7.426852,4.661472 1.462961,-2.25349 -1.11565,-2.930966 -0.866261,-5.179413 4.872383,-0.0076 11.914669,14.063174 15.108136,15.885552 0.762285,-1.477084 -0.857183,-2.416051 -0.08885,-3.888091 2.331241,-0.430104 3.281304,2.504897 6.043658,3.195485 2.762354,0.690589 3.974918,-0.769346 5.523699,0.433131 2.431695,2.891079 5.547188,9.547634 7.770129,11.825824 2.780961,2.850078 4.317187,2.071765 6.043659,4.316178 1.726471,2.244412 5.604474,10.351766 11.393705,13.983407"/></path><path d="m78.943 109.75c-8.8487-7.3953-4.2901-12.345-17.221-20.427 4.668 2.0679 5.5597 0.32426 7.9547 0.12496-0.61889-3.7245-4.0147-4.5516-8.1734-9.314-2.602-7.0758-9.1043-11.835-8.2451-14.774 2.5089 0.18677 3.3222 3.0637 6.1734 2.9859 1.2883-7.2845-13.398-18.037-12.886-22.798 2.9431 0.8824 5.5836 4.4239 9.0436 5.4699 1.463-2.2535-1.7624-5.6795-1.513-7.9279 4.8724-0.0076 8.5195 12.608 11.713 14.43 0.76228-1.4771-0.37215-4.3562 0.39618-5.8282 2.3312-0.4301 2.7963 4.445 5.5586 5.1356 2.7624 0.69059 3.9749-0.76935 5.5237 0.43313 2.4317 2.8911 2.4753 7.4458 4.6983 9.724 2.781 2.8501 8.1974 3.6885 9.9239 5.9329 1.7265 2.2444 3.6644 8.735 9.4536 12.367" display="none" fill="none" stroke="#fff" stroke-linecap="round" stroke-linejoin="round" stroke-width="3"/><path d="m97.723 84.053c-2.8316 1.0333-5.339 2.8894-6.709 5.3594-7.58 1.83-16.461 7.3914-13.441 16.191 0.13 0.37 0.22161 0.71884 0.21094 1.0488-0.0097 0.29937-0.09134 1.7048-1.2207 2.8711-1.3436 1.3876-3.4198 2.4791-4.7598 3.6191-1.74 1.49-2.4995 3.4197-2.5195 5.4902-0.02341 2.4179 2.2051 6.4551 4.4902 8.8301 0.26493 0.27534 0.51023 0.55055 0.74023 0.81055 2.2 2.5 4.479 5.3087 7.459 6.8887 3.69 1.94 8.4312 2.5012 12.531 2.2812 2.26-0.13 3.8289-0.62961 6.1289 0.15039 2.03 0.68 4.2102 1.65 6.4102 1.25 4.47-0.81 8.2505-3.9399 11.73-6.6699 3.19-2.51 8.1902-4.9411 9.4902-9.1211 2.32-7.44 5.4291-16.71 0.11914-23.59-0.2-0.26-0.41247-0.49864-0.64062-0.73047-0.51049-0.51872-5.1311-2.9842-6.2188-3.3086-0.91238-0.27213-1.8305-0.52172-2.7305-0.76172-5.4-1.48-6.1299-6.799-10.42-9.709-2.05-1.39-4.5798-1.8899-7.0898-1.6699-0.96936 0.07352-1.9675 0.18818-3.5605 0.76953zm4.0605 4.4355c0.90953-0.01719 1.7998 0.06711 2.5898 0.22461 3.26 0.65 4.4801 4.7005 6.3301 7.0605 4.27 5.48 13.269 2.4702 15.369 10.24 0.99 3.67-0.38993 7.0288-1.4199 10.469-1.02 3.39-0.69922 5.7102-3.9492 7.9102-3.05 2.08-5.781 4.5907-8.791 6.7207-2.18 1.55-4.5889 3.1791-7.3789 2.5391-1.72-0.39-3.3405-1.1894-5.0605-1.6094-2.4-0.6-4.9799 0.47922-7.4199 0.44922-2.72-0.04-7.0604-0.68016-9.1504-2.6602-2.48-2.36-9.2395-7.7-8.6895-11.5 0.5-3.46 7.0002-4.8598 8.2402-8.5898 0.73-2.21 0.35938-4.2797-0.39062-6.4297-1.91-5.56 7.6513-8.5903 11.361-9.3203 1.13-0.22 1.6795-0.98984 1.7695-1.8398 0.9525-2.6475 3.8612-3.6125 6.5898-3.6641z" fill="#fff"/><animateTransform attributeName="transform" calcMode="spline" dur="2s" keySplines="0.4 0 0.6 1; 0.4 0 0.6 1" keyTimes="0; 0.5; 1" repeatCount="indefinite" type="translate" values="-2 -2; 2 2; -2 -2"/></svg>
