<?xml version="1.0" encoding="UTF-8" standalone="no"?>
<!-- Generator: Adobe Illustrator 17.0.0, SVG Export Plug-In . SVG Version: 6.00 Build 0)  -->

<svg
   version="1.1"
   id="Layer_1"
   x="0px"
   y="0px"
   viewBox="0 0 143.333 144.333"
   enable-background="new 0 0 143.333 144.333"
   xml:space="preserve"
   sodipodi:docname="E14-02-animated-2.svg"
   inkscape:version="1.4-dev (0810a9c83c, 2023-10-27, custom)"
   xmlns:inkscape="http://www.inkscape.org/namespaces/inkscape"
   xmlns:sodipodi="http://sodipodi.sourceforge.net/DTD/sodipodi-0.dtd"
   xmlns="http://www.w3.org/2000/svg"
   xmlns:svg="http://www.w3.org/2000/svg"><defs
   id="defs15" /><sodipodi:namedview
   id="namedview15"
   pagecolor="#505050"
   bordercolor="#ffffff"
   borderopacity="1"
   inkscape:showpageshadow="0"
   inkscape:pageopacity="0"
   inkscape:pagecheckerboard="1"
   inkscape:deskcolor="#505050"
   inkscape:zoom="11.279777"
   inkscape:cx="44.105482"
   inkscape:cy="103.81411"
   inkscape:window-width="1920"
   inkscape:window-height="1043"
   inkscape:window-x="1366"
   inkscape:window-y="0"
   inkscape:window-maximized="1"
   inkscape:current-layer="g1" />
<g
   id="g15"
   inkscape:label="étoiles">
	
	
	
	<path
   fill="#fff"
   d="M70.431,29.006c-0.634-0.321-1.333-0.493-2.072-0.581c-0.121,0.526-0.216,1.069-0.25,1.615   c-0.161,2.385-3.908,2.567-3.742,0.162c0.039-0.658,0.156-1.298,0.312-1.929c-0.486-0.03-0.947-0.075-1.4-0.159   c-2.374-0.476-1.52-4.128,0.846-3.664c0.531,0.102,1.068,0.175,1.612,0.218c0.212-0.741,0.373-1.484,0.43-2.261   c0.182-2.39,3.929-2.572,3.742-0.162c-0.066,0.908-0.271,1.795-0.522,2.661c0.97,0.111,1.913,0.339,2.831,0.808   C74.367,26.805,72.588,30.11,70.431,29.006z"
   id="path5" />
	<path
   fill="#fff"
   d="M121.166,100.184c-0.742-0.12-1.481-0.209-2.228-0.309c-0.036,0.423-0.062,0.848-0.069,1.277   c-0.051,2.4-3.806,2.57-3.75,0.15c0.02-0.663,0.059-1.321,0.129-1.982c-0.669-0.124-1.334-0.267-1.99-0.449   c-2.323-0.649-1.49-4.305,0.844-3.654c0.58,0.154,1.155,0.287,1.744,0.403c0.196-0.806,0.434-1.614,0.726-2.388   c0.354-0.955,1.151-1.653,2.253-1.399c0.896,0.207,1.757,1.278,1.401,2.243c-0.262,0.689-0.477,1.399-0.663,2.115   c0.817,0.107,1.634,0.213,2.446,0.339C124.408,96.9,123.545,100.549,121.166,100.184z"
   id="path6" />
	<path
   fill="#fff"
   d="M92.381,137.465c-0.344-0.11-0.685-0.189-1.031-0.248c-0.116,0.414-0.235,0.839-0.361,1.251   c-0.723,2.286-4.381,1.462-3.654-0.844c0.101-0.305,0.185-0.624,0.267-0.934c-0.107-0.025-0.226-0.042-0.334-0.067   c-2.369-0.496-1.516-4.147,0.844-3.654c0.136,0.032,0.265,0.051,0.404,0.073c0.079-0.3,0.171-0.607,0.26-0.905   c0.723-2.286,4.381-1.462,3.654,0.844c-0.064,0.19-0.121,0.393-0.166,0.588c0.326,0.055,0.645,0.139,0.962,0.232   C95.515,134.514,94.691,138.172,92.381,137.465z"
   id="path7" />
	<path
   fill="#fff"
   d="M31.029,31.27c-0.547-0.075-1.089-0.128-1.641-0.184c-0.104,0.407-0.191,0.828-0.266,1.242   c-0.415,2.377-4.067,1.524-3.664-0.846c0.048-0.297,0.116-0.589,0.183-0.881c-0.575-0.133-1.143-0.295-1.695-0.525   c-0.948-0.383-1.195-1.713-0.747-2.543c0.521-0.968,1.588-1.142,2.533-0.749c0.274,0.104,0.559,0.201,0.851,0.268   c0.167-0.68,0.305-1.366,0.375-2.069c0.113-1.021,1.358-1.616,2.255-1.409c1.091,0.252,1.509,1.241,1.409,2.255   c-0.058,0.561-0.152,1.104-0.278,1.65c0.527,0.029,1.04,0.076,1.528,0.137C34.272,27.934,33.409,31.584,31.029,31.27z"
   id="path8" />
	<path
   fill="#fff"
   d="M106.1,17.506c-0.568-0.029-1.121-0.125-1.656-0.249l-0.065,0.283c-0.554,2.356-4.208,1.512-3.664-0.846   c0.036-0.156,0.07-0.302,0.115-0.456c-0.434-0.121-0.884-0.214-1.344-0.269c-1.019-0.122-1.613-1.327-1.401-2.243   c0.25-1.082,1.236-1.531,2.245-1.411c0.508,0.066,0.993,0.188,1.483,0.332c0.193-0.571,0.409-1.148,0.651-1.707   c0.4-0.934,1.696-1.21,2.533-0.749c0.96,0.509,1.169,1.604,0.759,2.536c-0.135,0.318-0.262,0.648-0.38,0.98   c0.19,0.023,0.372,0.035,0.564,0.048C108.331,13.885,108.513,17.632,106.1,17.506z"
   id="path9" />
	<path
   fill="#fff"
   d="M84.259,12.605c-0.615,1.151-1.738,1.528-2.966,1.378c-1.354-0.179-2.157-1.771-1.874-2.998   c0.164-0.711,0.582-1.231,1.115-1.539c-0.273,0.204-0.508,0.468-0.675,0.788c-0.017,0.027-0.033,0.054-0.05,0.081   c0.295-0.301,0.571-0.607,0.867-0.908c0.321-0.1,0.632-0.203,0.95-0.294c0.256-0.043,0.521-0.034,0.791-0.002   c-0.19-0.023-0.379-0.047-0.581-0.062c-0.067,0.025-0.142,0.039-0.21,0.064c-0.388,0.034-0.75,0.135-1.069,0.318   c0.756-0.564,1.819-0.678,2.686-0.211C84.449,9.868,84.904,11.41,84.259,12.605z"
   id="path10" />
	<path
   fill="#fff"
   d="M116.916,134.151l-0.074,0.322c-0.308,1.335-1.663,2.182-2.998,1.874c-1.325-0.306-2.182-1.663-1.874-2.998   l0.074-0.322c0.306-1.325,1.673-2.179,2.998-1.873C116.377,131.461,117.222,132.826,116.916,134.151z"
   id="path11" />
	<path
   fill="#fff"
   d="M135.775,56.057l-0.074,0.321c-0.308,1.335-1.663,2.182-2.998,1.874c-1.325-0.306-2.182-1.663-1.874-2.998   l0.074-0.321c0.306-1.325,1.673-2.179,2.998-1.874C135.237,53.367,136.081,54.732,135.775,56.057z"
   id="path12" />
	<path
   fill="#fff"
   d="M44.615,6.42l-0.074,0.321c-0.308,1.335-1.663,2.182-2.998,1.874c-1.325-0.306-2.182-1.663-1.874-2.998   l0.074-0.321c0.306-1.325,1.673-2.179,2.998-1.874C44.076,3.73,44.921,5.095,44.615,6.42z"
   id="path13" />
	<path
   fill="#fff"
   d="M51.465,41.904l-0.074,0.321c-0.308,1.335-1.663,2.182-2.998,1.874c-1.325-0.306-2.182-1.663-1.874-2.998   l0.074-0.321c0.306-1.325,1.673-2.179,2.998-1.874C50.927,39.214,51.771,40.579,51.465,41.904z"
   id="path14" />
	<path
   fill="#fff"
   d="M18.127,75.97l-0.074,0.322c-0.308,1.335-1.663,2.182-2.998,1.873c-1.325-0.306-2.182-1.663-1.874-2.998   l0.074-0.321c0.306-1.325,1.673-2.179,2.998-1.874C17.588,73.28,18.433,74.645,18.127,75.97z"
   id="path15" />
</g>
<g
   id="g1">
<path
   style="display:inline;fill:none;stroke:#ffffff;stroke-width:3.7;stroke-linecap:round;stroke-linejoin:round;stroke-dasharray:none;stroke-opacity:1"
   d="m 37.745123,87.226914 c -9.389334,-2.25344 -16.713015,1.4084 -23.848909,8.262614 7.135894,-0.938935 9.872855,1.247095 15.116828,1.502294 -11.079414,0.563356 -7.605361,12.300028 -23.6611215,12.112238 5.2580275,7.69926 15.8418865,8.3153 29.3886155,2.8168 -3.072392,9.05497 -4.553826,11.92446 -10.328267,16.14966 8.309561,2.81681 18.778668,0.0939 24.318375,-7.98093 2.910694,5.53971 2.347334,9.48323 0.657253,14.92905 7.323681,3.19237 18.611452,-17.28983 14.741255,-22.90998 -3.236447,-4.69984 -1.877866,-5.16413 -1.877866,-5.16413"
   id="path16"
   sodipodi:nodetypes="ccccccccsc"
   inkscape:label="gros-feu">
     <animate
   attributeName="d"
   values="m 37.745123,87.226914 c -9.389334,-2.25344 -16.713015,1.4084 -23.848909,8.262614 7.135894,-0.938935 9.872855,1.247095 15.116828,1.502294 -11.079414,0.563356 -7.605361,12.300028 -23.6611215,12.112238 5.2580275,7.69926 15.8418865,8.3153 29.3886155,2.8168 -3.072392,9.05497 -4.553826,11.92446 -10.328267,16.14966 8.309561,2.81681 18.778668,0.0939 24.318375,-7.98093 2.910694,5.53971 2.347334,9.48323 0.657253,14.92905 7.323681,3.19237 18.611452,-17.28983 14.741255,-22.90998 -3.236447,-4.69984 -1.877866,-5.16413 -1.877866,-5.16413; m 37.745123,87.226914 c -9.389334,-2.25344 -18.574754,1.319746 -25.710648,8.17396 7.135894,-0.938935 9.34093,3.286142 14.584903,3.541341 -11.079414,0.563356 -2.108799,10.615595 -18.1645593,10.427805 5.2580273,7.69926 14.6007273,6.45356 28.1474563,0.95506 -3.072392,9.05497 -7.745379,12.98831 -13.51982,17.21351 8.309561,2.81681 21.349641,-1.0586 26.889348,-9.13343 2.910694,5.53971 -0.04633,10.99035 -1.736411,16.43617 7.323681,3.19237 17.968222,-14.38833 15.361835,-22.20074 -1.745582,-5.23223 -2.321138,-6.13933 -2.321138,-6.13933; m 37.745123,87.226914 c -9.389334,-2.25344 -16.713015,1.4084 -23.848909,8.262614 7.135894,-0.938935 9.872855,1.247095 15.116828,1.502294 -11.079414,0.563356 -7.605361,12.300028 -23.6611215,12.112238 5.2580275,7.69926 15.8418865,8.3153 29.3886155,2.8168 -3.072392,9.05497 -4.553826,11.92446 -10.328267,16.14966 8.309561,2.81681 18.778668,0.0939 24.318375,-7.98093 2.910694,5.53971 2.347334,9.48323 0.657253,14.92905 7.323681,3.19237 18.611452,-17.28983 14.741255,-22.90998 -3.236447,-4.69984 -1.877866,-5.16413 -1.877866,-5.16413"
   dur="1s"
   repeatCount="indefinite" />
</path>
   <path
   style="display:none;fill:none;stroke:#ffffff;stroke-width:3.7;stroke-linecap:round;stroke-linejoin:round;stroke-dasharray:none;stroke-opacity:1"
   d="m 37.745123,87.226914 c -9.389334,-2.25344 -18.574754,1.319746 -25.710648,8.17396 7.135894,-0.938935 9.34093,3.286142 14.584903,3.541341 -11.079414,0.563356 -2.108799,10.615595 -18.1645593,10.427805 5.2580273,7.69926 14.6007273,6.45356 28.1474563,0.95506 -3.072392,9.05497 -7.745379,12.98831 -13.51982,17.21351 8.309561,2.81681 21.349641,-1.0586 26.889348,-9.13343 2.910694,5.53971 -0.04633,10.99035 -1.736411,16.43617 7.323681,3.19237 17.968222,-14.38833 15.361835,-22.20074 -1.745582,-5.23223 -2.321138,-6.13933 -2.321138,-6.13933"
   id="path1"
   sodipodi:nodetypes="ccccccccsc"
   inkscape:label="gros-feu-2" />
<path
   style="display:inline;fill:none;stroke:#ffffff;stroke-width:2.5;stroke-linecap:round;stroke-linejoin:round;stroke-dasharray:none;stroke-opacity:1"
   d="m 43.097044,90.513181 c 0,0 -9.899858,2.440873 -9.671015,4.694666 0.09575,1.767488 4.284404,1.810669 4.319094,3.755734 0.124614,2.222209 -3.172955,3.965719 -9.577121,5.821389 11.692458,5.22545 12.485956,-2.16504 15.867975,1.22061 1.584731,1.56763 0.691876,5.27559 -1.032827,11.17331 5.047979,-1.70141 5.795579,-4.21757 6.854214,-6.38475 3.187544,1.77504 5.747285,3.97794 7.980934,7.60536 3.248001,-1.99877 0.09389,-13.05117 0.09389,-13.05117"
   id="path17"
   sodipodi:nodetypes="ccccccccc"
   inkscape:label="petit-feu">
     <animate
   attributeName="d"
   values="m 43.097044,90.513181 c 0,0 -9.899858,2.440873 -9.671015,4.694666 0.09575,1.767488 4.284404,1.810669 4.319094,3.755734 0.124614,2.222209 -3.172955,3.965719 -9.577121,5.821389 11.692458,5.22545 12.485956,-2.16504 15.867975,1.22061 1.584731,1.56763 0.691876,5.27559 -1.032827,11.17331 5.047979,-1.70141 5.795579,-4.21757 6.854214,-6.38475 3.187544,1.77504 5.747285,3.97794 7.980934,7.60536 3.248001,-1.99877 0.09389,-13.05117 0.09389,-13.05117; m 43.097044,90.513181 c 0,0 -13.09141,2.706836 -12.862567,4.960629 0.09575,1.767488 8.539807,0.658164 8.574497,2.603229 0.124614,2.222211 -3.172955,3.522451 -9.577121,5.378121 11.692458,5.22545 11.776722,-1.81043 15.158741,1.57522 1.584731,1.56763 -1.258517,7.4033 -2.98322,13.30102 5.047979,-1.70141 7.745972,-6.52259 8.804607,-8.68977 3.187544,1.77504 4.860743,5.57372 7.094392,9.20114 3.248001,-1.99877 0.625815,-13.49444 0.625815,-13.49444; m 43.097044,90.513181 c 0,0 -9.899858,2.440873 -9.671015,4.694666 0.09575,1.767488 4.284404,1.810669 4.319094,3.755734 0.124614,2.222209 -3.172955,3.965719 -9.577121,5.821389 11.692458,5.22545 12.485956,-2.16504 15.867975,1.22061 1.584731,1.56763 0.691876,5.27559 -1.032827,11.17331 5.047979,-1.70141 5.795579,-4.21757 6.854214,-6.38475 3.187544,1.77504 5.747285,3.97794 7.980934,7.60536 3.248001,-1.99877 0.09389,-13.05117 0.09389,-13.05117"
   dur="1s"
   repeatCount="indefinite" />
   </path><path
   style="display:none;fill:none;stroke:#ffffff;stroke-width:2.5;stroke-linecap:round;stroke-linejoin:round;stroke-dasharray:none;stroke-opacity:1"
   d="m 43.097044,90.513181 c 0,0 -13.09141,2.706836 -12.862567,4.960629 0.09575,1.767488 8.539807,0.658164 8.574497,2.603229 0.124614,2.222211 -3.172955,3.522451 -9.577121,5.378121 11.692458,5.22545 11.776722,-1.81043 15.158741,1.57522 1.584731,1.56763 -1.258517,7.4033 -2.98322,13.30102 5.047979,-1.70141 7.745972,-6.52259 8.804607,-8.68977 3.187544,1.77504 4.860743,5.57372 7.094392,9.20114 3.248001,-1.99877 0.625815,-13.49444 0.625815,-13.49444"
   id="path2"
   sodipodi:nodetypes="ccccccccc"
   inkscape:label="petit-feu-2"/>
   <path
   fill="#fff"
   d="m 127.974,27.096 c 2.332,-0.632 1.219,-4.214 -1.122,-3.584 -1.796,0.489 -3.093,1.708 -4.554,2.746 -0.049,-0.011 -0.088,-0.02 -0.139,-0.022 -14.943,-1.244 -30.478,7.455 -43.106,14.453 -5.86,3.245 -11.485,6.893 -16.721,10.99 -11.283,1.038 -22.355,-2.924 -33.623,-1.862 -1.383,0.122 -2.429,1.184 -2.396,2.598 0.205,9.202 6.266,18.914 12.848,25.032 0.143,0.136 0.291,0.252 0.445,0.339 -1.352,2.212 -2.675655,7.258944 -2.451839,11.241954 L 60.581547,109.40594 C 63.207547,108.52394 69.38,106.624 72.008,105.599 l 0.01,0.002 c 0.036,-0.023 0.07,-0.035 0.103,-0.048 -0.002,0.01 0.007,0.012 0.005,0.022 0.118,0.376 0.343,0.736 0.708,1.067 1.532,1.411 3.396,2.539 5.087,3.75 2.379,1.699 4.171,3.98 6.139,6.128 2.039,2.236 7.378,7.964 10.995,5.186 3.56,-2.75 3.449,-7.958 3.731,-12.07 0.513,-7.333 1.36,-15.625 4.698,-22.213 0.241,-0.468 0.316,-0.923 0.279,-1.342 1.676,-2.015 3.253,-4.134 4.739,-6.347 4.963,-7.362 8.619,-15.683 11.891,-23.898 3.414,-8.562 5.709,-17.658 4.55,-26.906 0.002,-0.01 -0.005,-0.022 -0.003,-0.031 0.933,-0.749 1.873,-1.486 3.034,-1.803 z M 31.522,54.654 c 8.267,-0.246 16.448,1.796 24.701,2.142 -5.358,4.849 -10.209,10.256 -14.391,16.28 -4.796,-4.7 -9.285,-11.617 -10.31,-18.422 z m 31.132,49.81 c -4.247,-3.208 -8.125,-6.905 -12.049,-10.49 -2.96,-2.695 -5.523,-5.729 -8.911,-7.856 0.226,-1.734 1.002,-3.72 1.96,-5.377 7.382,7.811 16.451,13.825 23.974,21.515 -1.611,0.891 -3.227,1.801 -4.974,2.208 z m -7.59,-19.887 c 0.11,-0.077 0.213,-0.166 0.308,-0.268 4.961,-5.351 11.453,-10.708 17.863,-14.247 3.459,-1.911 7.012,-1.788 7.771,2.882 0.595,3.647 -1.368,7.125 -3.442,9.93 -3.159,4.258 -7.424,7.574 -10.652,11.775 -3.838,-3.471 -7.916,-6.701 -11.848,-10.072 z m 17.605,20.783 c -0.008,-0.012 -0.008,-0.012 -0.017,-0.014 0.055,-0.018 0.101,-0.038 0.147,-0.058 -0.036,0.022 -0.084,0.052 -0.13,0.072 z m 17.396,10.093 c -1.818,-1.549 -3.376,-3.427 -4.955,-5.208 -2.055,-2.301 -4.574,-3.837 -6.943,-5.667 6.674,-2.369 12.586,-5.972 17.793,-10.476 -1.487,6.707 -1.624,13.747 -2.665,20.568 -0.415,2.726 -1.321,2.424 -3.23,0.783 z M 105.704,74.83 c -7.415,12.379 -18.439,22.119 -32.446,26.069 -0.022,0.005 -0.043,0.011 -0.055,0.018 0.059,0.055 0.116,0.119 0.173,0.184 -0.067,-0.067 -0.126,-0.121 -0.197,-0.169 0,0 0.014,-0.017 0.024,-0.015 -1.132,-1.277 -2.316,-2.505 -3.538,-3.701 4.409,-5.807 10.531,-10.141 13.772,-16.843 2.236,-4.615 2.25,-12.412 -2.982,-14.954 -4.615,-2.236 -10.611,2.086 -14.063,4.676 -4.729,3.547 -9.721,7.3 -13.75,11.635 -0.138,0.153 -0.244,0.303 -0.322,0.459 -2.234,-2.014 -4.39,-4.103 -6.407,-6.344 0.097,-0.111 0.197,-0.232 0.289,-0.364 8.781,-12.649 20.863,-22.083 34.087,-29.754 11.482,-6.658 26.042,-14.821 39.856,-14.598 1.068,15.158 -6.877,31.079 -14.441,43.701 z"
   id="path4"
   sodipodi:nodetypes="cccccccccccccccccccccccccccccccccccccccccccccccccccccccccccccccccccccccc"
   inkscape:label="fusée" />
	<path
   fill="#fff"
   d="M111.982,42.88c-0.037-0.06-0.077-0.11-0.124-0.172c-4.196-5.341-11.1-6.288-17.092-3.361   c-5.634,2.753-10.166,8.737-7.632,15.141c3.015,7.655,12.889,10.54,20.123,7.879C116.017,59.144,117.04,49.733,111.982,42.88z    M105.359,59.075c-5.607,2.061-13.258-1.029-15.072-6.908c-1.255-4.077,2.717-7.634,5.862-9.341   c4.096-2.226,9.525-1.958,12.519,1.874C112.798,50.149,112.278,56.536,105.359,59.075z"
   id="hublot" />

<animateTransform
   attributeName="transform"
   type="translate"
   values="-3 3; 3 -3; -3 3"
   dur="5s"
   repeatCount="indefinite"
   calcMode="spline" keyTimes="0; 0.5; 1" keySplines="0.4 0 0.6 1; 0.4 0 0.6 1"
   />
   </g></svg>
