<?xml version="1.0" encoding="UTF-8"?>
<svg width="2.8816mm" height="2.8922mm" version="1.1" viewBox="0 0 2.8816 2.8922" xmlns="http://www.w3.org/2000/svg"><g transform="translate(-85.841 -114.44)"><path d="m87.177 115.91c-0.26081 0.0291-1.1875 0.14706-1.2839-0.18416-0.12589-0.43337 0.98913-0.32435 1.1993-0.30223-0.0071-0.20779-0.0575-0.69286 0.06349-0.85581 0.12263-0.16504 0.29817-0.0601 0.37963 0.0839 0.11636 0.20644 0.07344 0.46578 0.04334 0.68737l0.89093 0.0289c0.23644 0.074 0.2745 0.28108 0.11132 0.41232-0.20022 0.16141-0.60074 0.0423-0.78391 0.22294-0.21889 0.21683 0.02813 0.84668-0.15199 1.1629-0.07744 0.13709-0.20779 0.17392-0.32498 0.0543-0.21876-0.22327-0.17474-1.0076-0.1432-1.3104z" fill="#fff" stroke="#fff" stroke-width=".084667"/></g></svg>
